<?xml version="1.0" encoding="UTF-8"?><svg id="_6" xmlns="http://www.w3.org/2000/svg" viewBox="0 0 1927.62 1794.46"><defs><style>.cls-1{fill:#168ca8;}.cls-2{fill:#63f2ff;}.cls-3{fill:#f1af00;}.cls-4{fill:#fff;}.cls-4,.cls-5,.cls-6,.cls-7,.cls-8,.cls-9,.cls-10,.cls-11,.cls-12,.cls-13,.cls-14,.cls-15,.cls-16,.cls-17,.cls-18,.cls-19,.cls-20,.cls-21,.cls-22,.cls-23{fill-rule:evenodd;}.cls-5{fill:#c1301e;}.cls-24{fill:#ff786e;}.cls-6{fill:#022a5b;}.cls-25{fill:#0e6d8e;}.cls-26{fill:#dcffff;}.cls-27{fill:#33b3c4;}.cls-28{fill:#f9a873;}.cls-7{fill:#e33d1e;}.cls-8{fill:#ff6835;}.cls-9{fill:#cc842e;}.cls-10{fill:#0f447a;}.cls-11{fill:#010101;}.cls-12{fill:#1a0f10;}.cls-29,.cls-30{fill:#008c99;}.cls-13{fill:#dcfffa;}.cls-14{fill:#684034;}.cls-31{fill:#00adbd;}.cls-32{fill:#10819b;}.cls-33{fill:#1d99b3;}.cls-33,.cls-30,.cls-34{opacity:.2;}.cls-35,.cls-34{fill:#bc2e2e;}.cls-15{fill:#155589;}.cls-16{fill:#002756;}.cls-17{fill:#003d75;}.cls-36,.cls-23{fill:#936654;}.cls-37{fill:#2b95b2;}.cls-38,.cls-21{fill:#002b6a;}.cls-39{fill:#b9e5fb;}.cls-40{fill:#dd3a3a;}.cls-18{fill:#774d3e;}.cls-19{fill:#875b4c;}.cls-20{fill:#f3a273;}.cls-22{fill:#013470;}</style></defs><g id="_3"><path class="cls-33" d="M634.58,1472.85l251.46,125.76s-274.88,33.2-119.97,115.16c146.2,77.35,218.75-65.76,218.75-65.76l243.54,121.8,589.2-294.66-245.78-122.92s-57.79,139.5-214.95,60.9c-148.71-74.37,102.69-117.04,102.69-117.04l-235.74-117.9-233.49,128.09s236.55,24.45,84.34,100.57c-139.67,69.85-201.09-48.92-201.09-48.92l-238.96,114.92Z"/><path class="cls-33" d="M50.29,1152.14l240.83,120.44s73.62-146,221.99-67.49c140.02,74.08-127.37,114.81-127.37,114.81l233.25,116.65,230.08-115.06s38.61,121.71,186.98,49.66c146.19-70.99-90.22-98.05-90.22-98.05l237.45-118.75-235.4-117.72s264.07-30.47,113.55-105.75c-142.43-71.23-221.06,51.98-221.06,51.98l-225.78-112.91-235.3,117.68s240.38,32.49,94.61,105.39c-133.77,66.9-206.43-55.92-206.43-55.92l-217.18,115.06Z"/><g><path class="cls-40" d="M116.95,1167.95l240.61,120.33s73.55-145.86,221.78-67.43c139.89,74.01-127.26,114.7-127.26,114.7l233.03,116.54,229.86-114.96s38.58,121.59,186.81,49.61c146.05-70.92-90.14-97.96-90.14-97.96l237.23-118.64-235.18-117.61s263.82-30.44,113.44-105.65c-142.29-71.16-220.86,51.93-220.86,51.93l-225.57-112.81-235.08,117.57-111.71,49.42-216.98,114.96Z"/><polygon class="cls-40" points="1149.27 1151.73 1149.27 1346.06 988.61 1311.21 995.86 1169.05 1149.27 1151.73"/><polygon class="cls-40" points="1173.37 798.83 1173.37 964 975.72 856.05 1173.37 798.83"/><polygon class="cls-35" points="116.95 974.61 116.95 1167.95 357.56 1288.28 357.56 1094.94 116.95 974.61"/><polygon class="cls-40" points="1248.88 976.81 1248.88 1170.15 1011.65 1288.79 1011.65 1095.45 1248.88 976.81"/><path class="cls-35" d="M1044.2,1406.69v-218.73l-129.22-44.16v193.34l1.6,4.22c7.11,17.35,39.97,82.1,127.62,65.32Z"/><path class="cls-35" d="M481.09,999.07v203.01l178.04-91.03s81.37-30.61,10.47-82.98l-70.89-52.36-117.62,23.36Z"/><polygon class="cls-35" points="445.64 810.23 445.64 1003.58 624.48 966.42 636.57 810.23 445.64 810.23"/><polygon class="cls-35" points="452.08 1142.21 452.08 1335.56 685.11 1452.1 685.11 1258.75 452.08 1142.21"/><path class="cls-24" d="M116.95,974.61l240.61,120.33s73.55-145.86,221.78-67.43c139.89,74.01-127.26,114.7-127.26,114.7l233.03,116.54,229.86-114.96s40.77,123.79,189,51.8c146.05-70.92-92.33-100.15-92.33-100.15l237.23-118.64-235.18-117.61s263.82-30.44,113.44-105.65c-142.29-71.16-220.86,51.93-220.86,51.93l-225.57-112.81-235.08,117.57s240.16,32.46,94.52,105.29c-133.64,66.84-206.23-55.87-206.23-55.87l-216.98,114.96Z"/></g><g><path class="cls-31" d="M682.92,1452.1l240.61,120.33s-263.02,31.77-114.79,110.19c139.89,74.01,209.31-62.92,209.31-62.92l233.03,116.54,563.77-281.95-235.18-117.61s-55.29,133.48-205.67,58.27c-142.29-71.16,98.26-111.99,98.26-111.99l-225.57-112.81-223.42,122.56s226.34,23.4,80.7,96.23c-133.64,66.84-192.41-46.81-192.41-46.81l-228.64,109.96Z"/><polygon class="cls-29" points="682.92 1258.75 682.92 1452.1 923.52 1572.42 923.52 1379.08 682.92 1258.75"/><polygon class="cls-29" points="1018.05 1426.35 1018.05 1619.7 1251.08 1736.24 1251.08 1542.89 1018.05 1426.35"/><polygon class="cls-31" points="896.28 1704.24 848.14 1474 955.56 1474 896.28 1704.24"/><polygon class="cls-31" points="1472.26 1089.61 1472.26 1258.75 1239.13 1156.05 1413.14 1089.61 1472.26 1089.61"/><polygon class="cls-31" points="1814.85 1260.95 1814.85 1454.29 1251.08 1736.24 1251.08 1542.89 1814.85 1260.95"/><path class="cls-29" d="M763.49,1445.06v193.01c.37,12.76,13.13,27.55,45.24,44.54,33.16,17.54,62.3,23.14,87.55,21.62v-213.05l-132.79-46.12Z"/><path class="cls-2" d="M682.92,1258.75l240.61,120.33s-263.02,31.77-114.79,110.19c139.89,74.01,209.31-62.92,209.31-62.92l233.03,116.54,563.77-281.95-235.18-117.61s-55.29,133.48-205.67,58.27c-142.29-71.16,98.26-111.99,98.26-111.99l-223.37-112.81-237.23,118.64s237.96,27.32,92.33,100.15c-133.64,66.84-189-51.8-189-51.8l-232.06,114.96Z"/></g></g><g id="_4"><ellipse class="cls-34" cx="708.73" cy="1148.04" rx="151.24" ry="59.14"/><ellipse class="cls-30" cx="1151.07" cy="1304.48" rx="236.09" ry="62"/><g><polygon class="cls-21" points="1367.82 1293.08 1371.95 1314.56 1342.29 1336.69 1219.66 1280.91 1217.67 1265.96 1252.04 1243.84 1315.21 1247.94 1367.82 1293.08"/><g><polygon class="cls-20" points="1000.98 556.6 966.16 573.48 954.66 566.86 932.62 562.57 918.9 576.62 907.26 573.69 921.36 539.43 989.3 525.82 1000.98 556.6"/><polygon class="cls-4" points="1008.5 561.32 993.18 566.17 973.26 548.71 960.29 496.34 972.14 495.18 1008.5 561.32"/><polygon class="cls-21" points="980.63 545.59 968.1 492.61 1118.74 476.07 1267.29 406.75 1318.91 477.65 1164.61 552.35 1001.46 567.52 980.63 545.59"/></g><path class="cls-21" d="M1038.87,1258.98c-3.25,0-66.62,.24-66.62,.24l-32.08,27.71,5.51,18.46,114.92,44.61,50.58-18.45,2.66-57.61-12.93-1.47-62.03-13.49Z"/><path class="cls-21" d="M1329.52,692.81c0,4.94,7.58,25.51,7.58,25.51l12.99,96.71-1.91,202.4,29.96,180.5v105.01l-40.06,14.07-57.38-38.97-44.85-237.87v-171.98l93.67-175.38Z"/><path class="cls-17" d="M1110.84,765.95s-79.6,228.12-77.43,231.37c2.16,3.25-23.23,293.6-23.23,293.6,0,0,39.49,28.6,42.73,25.35,3.25-3.25,72.02-21.02,72.02-21.02l18.39-255.08s121.08-159.13,123.42-161.63c16.22-17.33,81.44-77.72,81.44-77.72l-11.08-82.5-226.26,47.63Z"/><polygon class="cls-16" points="1132.35 442.62 1312.87 345.41 1369.7 382.22 1383.51 442.62 1325.77 630.27 1351.75 719.76 1184.31 815.03 1102.69 789.19 1105.09 753.72 1115.03 607.17 1103.48 500.36 1132.35 442.62"/><path class="cls-20" d="M1188.79,418.44v-62.79s66.04-22.73,69.29-19.49,31.39,38.97,31.39,38.97l-44.39,38.97-56.29,4.33Z"/><polygon class="cls-20" points="1214.75 410.91 1155.84 353.34 1156.68 241.56 1190.24 279.45 1214.75 410.91"/><polygon class="cls-9" points="1143.32 225.61 1162.78 189.66 1254.74 185.98 1267.3 198.76 1289.47 208.75 1308.81 247.44 1290.56 343.38 1219.76 378.5 1181.57 346.99 1174.35 275.03 1143.32 225.61"/><path class="cls-4" d="M1285.37,369.75c.15,.18-49.5,31.43-49.5,31.43l-47.34,7.48s-4.9,11.04-3.48,11.04h57.31l57.16-37.8-1.9-12.15-16.25-5.06,4.01,5.06Z"/><g><path class="cls-28" d="M1126.05,909.84c15.13,21.15,19.5-33.85,18.8-29.22-17.4,1.32-34.85-5.09-51.24-7.11-1.65,5.72-1.24,31.26-.57,35.43l13.61,27.23,25.62-15.9s-3.79-8.58-6.22-10.43Z"/><path class="cls-39" d="M1146.59,883.7l-41.95-1.26-12.99-9.15,1.9-13.51,54.08,6.19c1.76,2.85-1.04,17.73-1.04,17.73Z"/><path class="cls-38" d="M1207.34,450.1v236.37c0,3-.46,5.97-1.36,8.83l-46.3,146.37c-.9,6.71-6.59,19.25-6.96,25.57,.04,.97-.01,1.91-.08,2.96-.8,.82-49.79-.77-49.79-.77,0,0-10.63-11.14-10.7-11.25,7.1-26.61,3.92-61.49,10.54-75.53,17.84-37.82,11.95-255.26,11.95-255.26l29.73-95.3s43.86-23.62,62.97,17.99Z"/><g><polygon class="cls-25" points="1209.06 983.86 1207.8 1005.38 1198.39 1150.26 1160.03 1170.36 1164.37 1096.31 1169.38 1010.96 1169.43 1010.12 1170.06 999.36 1170.07 999.04 1173.91 997.59 1174.12 997.5 1205.94 985.15 1206.05 985.04 1209.06 983.86"/><polygon class="cls-37" points="1164.37 1096.31 1000.12 994.73 1005.68 899.79 1005.89 899.7 1169.76 999.24 1170.06 999.36 1164.37 1096.31"/><polygon class="cls-32" points="1164.37 1096.31 1160.03 1170.36 996.23 1061.08 1000.12 994.73 1163.78 1096.05 1164.37 1096.31"/><polygon class="cls-26" points="1120.78 1060.48 1137.6 1070.77 1136.23 1094.09 1119.47 1082.85 1120.78 1060.48"/><path class="cls-27" d="M1169.76,999.24l-163.87-99.54,37.93-14.51c3.91,2.47,164.24,96.6,165.33,97.19l-.09,1.47-39.3,15.38Z"/><polygon class="cls-26" points="1038.1 1032.95 1021.34 1021.61 1022.65 999.24 1039.47 1009.53 1038.1 1032.95"/><path class="cls-1" d="M1144.88,914.15l-2.88,41.69-6.22,1.9-4.45-3c.17-1.67,1.74-29.65,1.99-33.93-.3,.06-4.04-2.4-5.79-3.74-.14-.17-.28-.32-.42-.41-2.69-2.93-.41-9.15-.41-9.15,.39-.43,4.3-1.84,4.3-1.84,2.3,.84,13.87,8.48,13.87,8.48Z"/><path class="cls-1" d="M1086.37,926.29l-4.25,.61-4.86-2.61,.88-14.99,2.67-19.57,8.94-1.06h2.72l.16,3.49,.09,13.02c-.64-.42-3-.95-3-.95l-2.06,.97-1.29,21.09Z"/></g></g></g><g><g><path class="cls-36" d="M838.28,594.8c10.61,12.42,10.38-22.24,10.19-19.3-10.82,1.77-22.08-1.31-32.45-1.69-.72,3.67,.91,19.63,1.55,22.21l9.99,16.31,15.18-11.33s-2.84-5.17-4.45-6.19Z"/><path class="cls-39" d="M849.73,577.34l-26.33,1.47-8.62-5.03,.46-8.56,34.18,.96c1.26,1.69,.3,11.15,.3,11.15Z"/><path class="cls-38" d="M836.06,315.68s16.51,247.06,16.62,251.03c.08,.6,.09,1.2,.11,1.86-.45,.55-31.21,2.2-31.21,2.2,0,0-7.25-6.4-7.3-6.47,3.01-17.04-3.74-208.25-3.74-208.25l-14.07-50.75s25.38-14.64,39.59,10.37Z"/><g><polygon class="cls-25" points="894.23 636.66 894.6 650.2 896.52 741.39 873.59 756.03 872.32 709.45 870.85 655.77 870.84 655.23 870.65 648.47 870.65 648.27 872.97 647.15 873.09 647.09 892.35 637.64 892.41 637.57 894.23 636.66"/><polygon class="cls-37" points="872.32 709.45 764.04 654.72 762.41 595 762.53 594.93 870.46 648.41 870.65 648.47 872.32 709.45"/><polygon class="cls-37" points="872.32 709.45 873.59 756.03 765.18 696.46 764.04 654.72 871.93 709.33 872.32 709.45"/><path class="cls-27" d="M870.46,648.41l-107.93-53.48,22.96-11.12c2.58,1.34,108.01,51.61,108.72,51.93l.03,.93-23.77,11.75Z"/><path class="cls-1" d="M850.3,596.49l.44,26.25-3.79,1.52-2.94-1.64c.02-1.06-.51-18.65-.58-21.35-.18,.06-2.66-1.28-3.83-2.03-.1-.1-.19-.19-.28-.23-1.84-1.69-.75-5.7-.75-5.7,.22-.29,2.59-1.38,2.59-1.38,1.48,.4,9.14,4.56,9.14,4.56Z"/><path class="cls-1" d="M814.34,607.24l-2.63,.61-3.18-1.37-.26-9.43,.62-12.39,5.54-1.15,1.7-.15,.29,2.17,.76,8.14c-.42-.23-1.93-.43-1.93-.43l-1.24,.72,.33,13.27Z"/></g></g><g><path class="cls-18" d="M759.54,1007.75c-8.07-61.94-17.44-104.35-13.42-147.4,3.05-32.59,4.56-53.67,4.98-69.81,3.34-56.24,61.3,16.21,60.68,64.02-.78,62.52-11.79,123.21-16.38,187.43,.46,4.5,.95,9.11,1.32,13.46,2.55,29.58,.95,43.51,5.92,59.98,2.41,7.95,6.45,14.4,13.04,27.48,0,0-20.73,10.11-23.06,10.32-2.33,.21-33.17-10.47-33.17-10.47,0,0-11.65-54.09-11.48-57.17,1.87-34.9-16.48-32.27,4.19-57.59,4.72-5.78,6.59-12.87,7.37-20.27Z"/><path class="cls-6" d="M807.1,1124.44c11,16.74,14.01,26.06,9.11,35.36-2.72,5.16-13.18,6.81-24.82,5.23-11.73-1.59-23.91-5.42-27.57-7.98-.79-.55-5.94-12.5-5.94-12.5-1.93-21.21-7.18-39.53-11.31-60.4l-2.55,50.71-4.43-.77c-.32-18.26-2.3-39.75-4.63-55.48-.93-6.26-3.41-12.43-3.6-15.89-.82-15.04,10.61-24.36,19.41-34.84,4.03,27.83,3.25,85.75,28.86,100.17,8.72,4.91,19.86,3.77,27.48-3.61Z"/><path class="cls-23" d="M699.86,1053.09c-8.38-70.65-19.69-116.64-15.34-163.2,2.75-29.56,4.27-49.66,4.82-65.18,5.1-140.77,73.57-69.49,69.93-7.02-.72,29.82-8.81,44.2-9.1,66.43-.66,53.1-8.54,104.99-13.76,158.73,.53,15.86,2.38,31.23,3.63,45.65,2.56,29.59,.95,43.51,5.93,59.99,2.4,7.95,6.45,14.41,13.03,27.48,0,0-20.72,10.11-23.05,10.32-2.32,.21-33.18-10.47-33.18-10.47,0,0-11.66-54.09-11.49-57.16,1.87-34.9-16.48-32.27,4.19-57.59,1.98-2.42,3.26-5.15,4.38-7.96Z"/><path class="cls-21" d="M750.41,1157.48c11,16.73,14.01,26.05,9.12,35.36-2.72,5.16-13.18,6.81-24.82,5.23-11.73-1.6-23.91-5.43-27.57-7.98-.79-.55-5.94-12.49-5.94-12.49-1.93-21.22-7.18-39.53-11.31-60.41l-2.56,50.71-4.42-.77c-.32-18.26-2.29-39.74-4.63-55.47-.93-6.27-3.42-12.44-3.6-15.89-.82-15.04,10.61-24.36,19.41-34.84,4.03,27.83,3.25,85.75,28.86,100.17,8.72,4.91,19.86,3.76,27.48-3.61Z"/></g><path class="cls-21" d="M698.45,530.7c-.5,9.85-4.94,17.33-9.93,26.19-7.66,13.62-20.4,47.83-23.03,65.19-10.4,68.49,3.75,100.54,9.12,219.77,0,0,19.15,18.19,27.77,18.67,60.34,3.32,104.91-36.62,116.09-47.76,26.16-203.8,18.06-197.23,7.96-237.73-5.5-22.07-16.63-42.16-15.22-52.47-28.44,28.22-75.31,29.11-112.77,8.15Z"/><path class="cls-11" d="M792.25,92.93c13.75-5.58,17.74,6.95,17.74,6.95,18.22-.56,14.38,6.4,14.38,6.4,0,10.29,8.15,12.92,8.15,12.92,17.26,3.19,9.11,14.33,9.11,14.33,16.78,.56,6.71,13.07,6.71,13.07-5.75,4.45,9.11,11.12,9.11,11.12,5.75,6.67-2.88,13.9-2.88,13.9-3.84,4.17,2.88,12.51,2.88,12.51,13.42,2.5,4.79,12.24,4.79,12.24-9.11,1.95,.83,6.12,.83,6.12,13.77,4.45,0,12.51,0,12.51-16.91,1.95-4.83,5.84-4.83,5.84,10.86,4.17,0,10.85,0,10.85-10.23,3.34-4.57,7.23-4.57,7.23,11.56,4.17-2.45,7.51-2.45,7.51-9.59,1.95-1.92,5.56-1.92,5.56,11.51,7.51-3.34,9.73-3.34,9.73-9.09,2.5-.98,5.84-.98,5.84,5.27,7.23-12.46,4.73-12.46,4.73-12.94,6.95-24.45,.28-24.45,.28-16.78,7.79-26.21,.83-26.21,.83l12.78-23.36c15.44-5.99,25.1-25.1,25.1-25.1l7.22-41.06c-5.75-27.25-8.82-43.4-8.82-43.4-8.63-11.4-15.34-12.79-15.34-12.79-2.88-11.96-15.82-7.79-15.82-7.79,0,0-18.7-17.24,5.27-26.97Z"/><path class="cls-14" d="M733.4,218.7c1.11,11.77,16.16,34.51,2.54,63.34l63.98,83.03-2.65-63.63c-3.82-25.41-6.72-43.54-.7-65.73l-63.17-17Z"/><polygon class="cls-13" points="740.47 317.61 701.38 316.26 811.1 447.35 847.57 397.28 830.57 327.5 811.57 307.83 795.16 335.92 740.47 317.61"/><path class="cls-22" d="M830.66,571.29c-11.45-45.91-12.05-87.94,3.95-126.84,7.31-9.27,13.4-17.85,15.43-24.95,1.51-5.28,1.78-21.97,1.78-21.97,0,0-9.49-44.32-17-69.78-4.4-14.89-5.03-21.34-11.13-30.26-2.86-4.17-10.3-10.21-17.8-13.19-.78-.31,10.29,83.76,10.29,83.76,0,0-42.54,170.54-23.67,204.41,0,0,7.54,17.73,12.8,17.38,9.3-.62,25.35-18.56,25.35-18.56Z"/><g><polygon class="cls-5" points="762.81 301.3 797.26 286.4 797.26 301.44 787.58 315.68 762.81 301.3"/><polygon class="cls-7" points="766.66 299.64 796.62 281.32 796.9 288.69 766.66 299.64"/><path class="cls-8" d="M748.47,291.89c.51,1.39,44.83,11.68,44.83,11.68l-14.6,20.2-18.46-13.64-11.77-18.24Z"/><polygon class="cls-7" points="795.16 291.91 788.69 308.1 771.87 321.4 795.16 335.92 796.47 305.3 795.16 291.91"/></g><path class="cls-10" d="M730.53,286.4c-8.66,12.56-18.61,20.65-32.61,28.18-11.91,6.42-17.14,18.28-18.49,32.85-2.48,26.7,8.08,62.46,14.47,90.31,5.87,25.58,10.6,48.08,6.24,61.38-8.35,25.47-47.02,81.91-38.24,126.96,0,0,53.12,.66,86.79-12.74,16.3-6.49,36.75-15.08,43.68-32.9,21.25-54.64,9.91-173.73,9.91-173.73l-24.21-39.39s-38.8-67.84-47.55-80.92Z"/><polygon class="cls-4" points="736.5 273.33 760.24 310.12 795.16 335.92 760.24 358.03 730.47 290.68 736.5 273.33"/><polygon class="cls-4" points="793.3 272.96 796.47 305.3 795.16 335.92 820.12 343.24 805.26 281.71 793.3 272.96"/><path class="cls-19" d="M816.65,115.49c21.74,40.57,9.23,97.28,9.23,97.28l-10.36,30-14.54,27.1-20.17,1.09-34.68-23.2-5.06-16.86s-22.94-4.54-23.61-9.5l-11.07-82.96,110.27-22.94Z"/><path class="cls-3" d="M795.84,445.23c0,3.73-1.81,6.75-4.03,6.75s-4.03-3.02-4.03-6.75,1.81-6.75,4.03-6.75,4.03,3.02,4.03,6.75Z"/><path class="cls-3" d="M798.36,481.44c0,3.73-1.81,6.75-4.03,6.75s-4.03-3.02-4.03-6.75,1.81-6.75,4.03-6.75,4.03,3.02,4.03,6.75Z"/><path class="cls-3" d="M798.1,517.88c-.2,3.72-2.17,6.63-4.4,6.5-2.22-.13-3.86-3.25-3.66-6.97,.2-3.72,2.17-6.63,4.4-6.5,2.23,.13,3.86,3.25,3.66,6.97Z"/><path class="cls-3" d="M794.24,552.73c-.73,3.65-3.09,6.23-5.27,5.76-2.18-.47-3.36-3.81-2.63-7.46,.73-3.65,3.09-6.23,5.27-5.76,2.18,.47,3.36,3.81,2.63,7.46Z"/><g><polygon class="cls-23" points="907.08 535.63 914.18 567.05 936.16 590.99 963.73 584.67 968.46 575.03 939.65 546.97 907.08 535.63"/><polygon class="cls-13" points="907.08 535.63 923.67 538.13 910.74 568.49 900.62 558.55 907.08 535.63"/><path class="cls-15" d="M690.46,321.49s-16.54,6.64-16.4,7.95c.14,1.31-9.86,12.25,11.04,42.22,20.9,29.97,77.83,120.26,77.83,120.26l144.15,76.56,10.85-32.83-121.82-86.54-57.98-87.95-30.52-30.38-17.15-9.29Z"/></g><path class="cls-11" d="M799.04,91.99s-2.96-7.77-10.67-4.01c0,0-4.94-9.45-12.25-2.99,0,0-6.87-7.51-12.75-.78,0,0-7.37-9.39-15.34-3.46,0,0-10.26-7.53-16.7-2.24,0,0-10.42-6.18-17.22,.17,0,0-2.87,3.79-9.91,5.98,0,0-5.62-3.69-8.3,6.72,0,0-1.69,6.13-7.87,5.12-6.18-1-1.4-.44-1.4-.44,0,0-6.07,.11-4.78,11.81,0,0-10.82-.72-10.71,12.76,0,0-11.28,5.27-8.88,19.85,0,0-11.44,2.5-8.94,16.27,0,0-4.94,4.92-.64,9.55,0,0,2.09,6.93-8.28,6.49,0,0-4.84,4.06-1.24,10.53,0,0-10.88,8.07-3.96,17.13,0,0,15.81-2.54,16.26-14.58,0,0,7.57,3.64-1.36,13.59,0,0-22.18,3.16-16.62,11.52,0,0,6.86,5.48,4.69,15.68,0,0-1.71,12.45,11.08,16.98,0,0,6.55,4.07,8.12,13.33,0,0,4.55,6.59,11.04,2.95,0,0,3.07,8.89,13.11,5.94,0,0,5.98-3.42,12.17-.49,0,0-1.77,8.87,9.95,8.05,0,0-1.73,11.9,13.28,9.26,0,0,6.45,10.38,13.21,6.51,0,0,5.21-5.16,9.22,1.91,0,0,7.47,4.45,9.08-7.18,0,0-.84-3.12,1.83-5.28,0,0,8.25-4.25,1.44-12.2,0,0-.62-6.12,4.17-6.11,0,0,4.86-4.65-2.52-9.92,0,0,6.01-11.94-4.2-13.69,0,0,6.23-9.71,.69-12.02,0,0-5.19-5.29,.66-7.62,0,0,7.11,1.39,4.46-9.1,0,0,5.25-9.56,.9-15.84,0,0-10.8-2.92-2.45-7.99,0,0,5.24-1.31,.69-7.89,0,0-3.17-3.95,.62-7.35,0,0,9.93-4.05,1.74-12.72,0,0-1.73-7.9,4.85-8.23,0,0,5.45-1.01,4.4-8.56,0,0,6.58-.32,6.94-11.56,0,0,.7-4.46,10.77-3.55,0,0,13.43,9.6,17.06-2.62,0,0,43.86-11.62-5.43-29.69Z"/><path class="cls-12" d="M661.95,156.36s-10.75,15.04-8.64,29.8c0,0,8.85,18.55,20.27,26.96,0,0-3.89,16.83,8.99,21.42,0,0-3.4,19.12,9.71,20.65,0,0-2.67,11.09,12.63,8.03,0,0-2.43,18.36,15.06,14.92,0,0,10.69,15.68,21.86,3.82,0,0,5.59-5.74-1.21-9.18,0,0-4.13-8.8,1.7-9.56,0,0,8.01-6.12,.24-12.24,0,0-3.64-6.5-.73-7.65,0,0,8.5-10.87,1.21-18.82,0,0-3.08-13.31,2.95-14.46,0,0,4.82,3.06,3.36-11.86,0,0,7.77-5.74,5.59-17.98,0,0-1.7-9.94,11.9-8.8,0,0,4.13-8.03-3.64-18.36,0,0,3.4-20.27-8.26-20.65,0,0-11.9-11.09-21.13-3.82,0,0-13.6,2.68-17-5.74,0,0-6.8-4.97-13.11,3.06,0,0-13.1-31.84-21.85-16.54,0,0-10.71-2.9-10.71,20.04,0,0-13.55,13.16-9.18,26.93Z"/><path class="cls-12" d="M695.9,91.38s-20.37-1.38-14.06,16.49c0,0,7.48,11.06,16.45,19.5,0,0-6.74,9.59,4.3,16,0,0-6.71,11.17,5.12,15.72,0,0-4.54,6.29,10.17,8.53,0,0-5.67,10.95,11.13,13.55,0,0,6.94,12.84,19.48,8.38,0,0,6.23-2.11,.59-6.14,0,0-2.17-6.69,3.36-5.59,0,0,8.55-1.69,2.51-7.68,0,0-2.15-5.11,.76-5.04,0,0,9.88-4.56,4.64-11.58,0,0-.36-9.26,5.43-8.34,0,0,3.88,3.25,5.32-6.58,0,0,8.25-1.51,8.52-9.85,0,0,.29-6.76,12.64-2.32,0,0,27.03,12.67,29.95-19.33,0,0-5.74-13.48-22.04-15.61,0,0-15.93-10.3-24.04-6.5,0,0-9.69-9.84-21.02-2.94,0,0-5.35-5-12.69-1.64,0,0-7.58-9.87-18.51-2.57,0,0-13.22-8.48-17.51,6.04,0,0-11.95-2.4-10.49,7.5Z"/></g></g></svg>