<?xml version="1.0" encoding="UTF-8"?><svg id="Layer_2" xmlns="http://www.w3.org/2000/svg" viewBox="0 0 198.8 263.61"><defs><style>.cls-1{fill:#fff;}.cls-2{fill:#8a8a8a;}</style></defs><g id="Layer_1-2"><g><g><g><path class="cls-1" d="M0,262.49H3.65v-32.15H0v-.76H11c6.69,0,9.65,3.72,9.65,8.1,0,3.46-2.05,6.62-6.61,8.05v.1c5.3,1.22,7.88,4.08,7.88,8.36,0,4.89-3.08,9.07-10.47,9.07H0v-.76Zm11.04-16.86c3.08,0,5.38-1.48,5.38-7.29s-2.26-8-5.54-8h-3.2v15.29h3.37Zm.37,16.86c4.15,0,6.28-3.06,6.28-8.56s-2.26-7.54-6.36-7.54h-3.65v16.1h3.74Z"/><path class="cls-1" d="M43.8,262.49h2.87l-3.86-11.51h-9.44l-2.55,8.51c-.53,1.83,.33,3.01,2.22,3.01h1.23v.76h-7.59v-.76h.82c1.27,0,2.01-.76,2.67-3.01l9.07-30.11h.62l11.08,33.12h2.01v.76h-9.15v-.76Zm-10.18-12.28h8.91l-4.72-14.01-4.19,14.01Z"/><path class="cls-1" d="M61.78,232.68c-.86-1.43-1.35-2.34-3.37-2.34h-1.15v-.76h7.59l15.43,25.53v-21.7c0-1.94-.66-3.06-2.46-3.06h-1.23v-.76h8.05v.76h-1.27c-1.81,0-2.42,1.12-2.42,3.06v30.11h-.62l-17.9-29.7v25.63c0,1.94,.62,3.06,2.42,3.06h1.27v.76h-8.05v-.76h1.23c1.81,0,2.46-1.12,2.46-3.06v-26.75Z"/><path class="cls-1" d="M91.45,262.49h3.65v-32.15h-3.65v-.76h11.33v.76h-3.65v14.88h1.48l9.4-12.38c.86-1.17,.86-2.5-1.03-2.5h-1.44v-.76h7.59v.76h-.66c-1.19,0-2.09,.51-3.08,1.78l-8.05,10.65,11.78,19.72h1.72v.76h-10.39v-.76h3.53l-9.65-16.51h-1.23v16.51h3.65v.76h-11.33v-.76Z"/><path class="cls-1" d="M122.08,262.49h3.65v-32.15h-3.65v-.76h11.33v.76h-3.65v32.15h3.65v.76h-11.33v-.76Z"/><path class="cls-1" d="M144.36,232.68c-.86-1.43-1.35-2.34-3.37-2.34h-1.15v-.76h7.59l15.43,25.53v-21.7c0-1.94-.66-3.06-2.46-3.06h-1.23v-.76h8.05v.76h-1.27c-1.81,0-2.42,1.12-2.42,3.06v30.11h-.62l-17.9-29.7v25.63c0,1.94,.62,3.06,2.42,3.06h1.27v.76h-8.05v-.76h1.23c1.81,0,2.46-1.12,2.46-3.06v-26.75Z"/><path class="cls-1" d="M193.62,260.09c-.66,.97-1.68,2.09-3.28,2.8-.99,.46-2.26,.71-3.69,.71-7.02,0-12.36-6.78-12.36-17.22s5.01-17.17,12.73-17.17c3.16,0,5.3,1.43,6.61,3.16,1.27,0,1.64-1.12,2.05-2.8h.53s-.78,4.94-.78,7.13v3.01h-.62v-1.58c0-4.89-3.28-8.15-7.8-8.15-7.06,0-8.33,8.56-8.33,16.76,0,9.12,2.18,16.1,7.96,16.1,2.22,0,6.03-.76,6.03-4.79v-7.95h-4.06v-.76h10.18v.76h-2.42v13.14h-.53s-.66-3.01-2.22-3.16Z"/></g><path class="cls-1" d="M136.26,202.93h36.46c0-.6-.15-1.19-.15-1.64l-7.4-1.18L124.7,61.99h-3.99l-18.36,52.47c-2.15-2.91-4.15-5.97-6.01-9.18-6.76-11.67-9.47-21.9-10.27-25.44,4.37-.54,8.68-1.5,12.82-3.08,37.41-13.73,38.85-63.26-6.12-74.07-.08-.02-.17-.04-.27-.06l-11.8-1.82c-16.76-1.67-39.07-.23-54.62-.22v1.65l7.65,1.2c-.4,45.56,.11,91.28,0,136.83l-6.9,1.04v1.81H62.8v-1.66l-7.65-1.34c0-22.49-.15-36.88-.15-59.49,3.89,0,5.24,.15,8.69,.15,.55-.02,1.07-.03,1.59-.04,4.57,20.12,15.22,38.44,30.28,53.53,.05,.05,.09,.09,.14,.14l-19.87,57.11c-2.81,7.86-10.52,9.05-17.94,9.63v1.79h35.72c-.15-.6-.15-1.19-.15-1.64-5.93-.6-15.41-.3-15.41-6.66,0-.9,.15-1.92,.59-3.12l13.31-38.28,1.14-3.13,4.73-13.62c9.61,9.15,20.88,17.04,33.42,23.33l11.83,40.31-6.82,1.03v1.79Zm-24.15-108.04l11.96,40.69c-7.45-5.15-14.03-11.31-19.69-18.45l7.73-22.23Zm-47.43-17.04c-3.1-.08-6.28-.23-9.68-.23,0-22.02-.15-52.15-.15-74.18,8.32-.01,15.94-1.09,23.5,1.05,3.83,1.01,7.26,2.56,10.3,4.51,25.37,16.32,21,59.64-9.77,67.64-3.19,.83-6.65,1.28-10.39,1.28-1.26,0-2.54-.02-3.81-.07Z"/></g><g><g><path class="cls-2" d="M0,262.49H3.65v-32.15H0v-.76H11c6.69,0,9.65,3.72,9.65,8.1,0,3.46-2.05,6.62-6.61,8.05v.1c5.3,1.22,7.88,4.08,7.88,8.36,0,4.89-3.08,9.07-10.47,9.07H0v-.76Zm11.04-16.86c3.08,0,5.38-1.48,5.38-7.29s-2.26-8-5.54-8h-3.2v15.29h3.37Zm.37,16.86c4.15,0,6.28-3.06,6.28-8.56s-2.26-7.54-6.36-7.54h-3.65v16.1h3.74Z"/><path class="cls-2" d="M43.8,262.49h2.87l-3.86-11.51h-9.44l-2.55,8.51c-.53,1.83,.33,3.01,2.22,3.01h1.23v.76h-7.59v-.76h.82c1.27,0,2.01-.76,2.67-3.01l9.07-30.11h.62l11.08,33.12h2.01v.76h-9.15v-.76Zm-10.18-12.28h8.91l-4.72-14.01-4.19,14.01Z"/><path class="cls-2" d="M61.78,232.68c-.86-1.43-1.35-2.34-3.37-2.34h-1.15v-.76h7.59l15.43,25.53v-21.7c0-1.94-.66-3.06-2.46-3.06h-1.23v-.76h8.05v.76h-1.27c-1.81,0-2.42,1.12-2.42,3.06v30.11h-.62l-17.9-29.7v25.63c0,1.94,.62,3.06,2.42,3.06h1.27v.76h-8.05v-.76h1.23c1.81,0,2.46-1.12,2.46-3.06v-26.75Z"/><path class="cls-2" d="M91.45,262.49h3.65v-32.15h-3.65v-.76h11.33v.76h-3.65v14.88h1.48l9.4-12.38c.86-1.17,.86-2.5-1.03-2.5h-1.44v-.76h7.59v.76h-.66c-1.19,0-2.09,.51-3.08,1.78l-8.05,10.65,11.78,19.72h1.72v.76h-10.39v-.76h3.53l-9.65-16.51h-1.23v16.51h3.65v.76h-11.33v-.76Z"/><path class="cls-2" d="M122.08,262.49h3.65v-32.15h-3.65v-.76h11.33v.76h-3.65v32.15h3.65v.76h-11.33v-.76Z"/><path class="cls-2" d="M144.36,232.68c-.86-1.43-1.35-2.34-3.37-2.34h-1.15v-.76h7.59l15.43,25.53v-21.7c0-1.94-.66-3.06-2.46-3.06h-1.23v-.76h8.05v.76h-1.27c-1.81,0-2.42,1.12-2.42,3.06v30.11h-.62l-17.9-29.7v25.63c0,1.94,.62,3.06,2.42,3.06h1.27v.76h-8.05v-.76h1.23c1.81,0,2.46-1.12,2.46-3.06v-26.75Z"/><path class="cls-2" d="M193.62,260.09c-.66,.97-1.68,2.09-3.28,2.8-.99,.46-2.26,.71-3.69,.71-7.02,0-12.36-6.78-12.36-17.22s5.01-17.17,12.73-17.17c3.16,0,5.3,1.43,6.61,3.16,1.27,0,1.64-1.12,2.05-2.8h.53s-.78,4.94-.78,7.13v3.01h-.62v-1.58c0-4.89-3.28-8.15-7.8-8.15-7.06,0-8.33,8.56-8.33,16.76,0,9.12,2.18,16.1,7.96,16.1,2.22,0,6.03-.76,6.03-4.79v-7.95h-4.06v-.76h10.18v.76h-2.42v13.14h-.53s-.66-3.01-2.22-3.16Z"/></g><path class="cls-2" d="M136.26,202.93h36.46c0-.6-.15-1.19-.15-1.64l-7.4-1.18L124.7,61.99h-3.99l-18.36,52.47c-2.15-2.91-4.15-5.97-6.01-9.18-6.76-11.67-9.47-21.9-10.27-25.44,4.37-.54,8.68-1.5,12.82-3.08,37.41-13.73,38.85-63.26-6.12-74.07-.08-.02-.17-.04-.27-.06l-11.8-1.82c-16.76-1.67-39.07-.23-54.62-.22v1.65l7.65,1.2c-.4,45.56,.11,91.28,0,136.83l-6.9,1.04v1.81H62.8v-1.66l-7.65-1.34c0-22.49-.15-36.88-.15-59.49,3.89,0,5.24,.15,8.69,.15,.55-.02,1.07-.03,1.59-.04,4.57,20.12,15.22,38.44,30.28,53.53,.05,.05,.09,.09,.14,.14l-19.87,57.11c-2.81,7.86-10.52,9.05-17.94,9.63v1.79h35.72c-.15-.6-.15-1.19-.15-1.64-5.93-.6-15.41-.3-15.41-6.66,0-.9,.15-1.92,.59-3.12l13.31-38.28,1.14-3.13,4.73-13.62c9.61,9.15,20.88,17.04,33.42,23.33l11.83,40.31-6.82,1.03v1.79Zm-24.15-108.04l11.96,40.69c-7.45-5.15-14.03-11.31-19.69-18.45l7.73-22.23Zm-47.43-17.04c-3.1-.08-6.28-.23-9.68-.23,0-22.02-.15-52.15-.15-74.18,8.32-.01,15.94-1.09,23.5,1.05,3.83,1.01,7.26,2.56,10.3,4.51,25.37,16.32,21,59.64-9.77,67.64-3.19,.83-6.65,1.28-10.39,1.28-1.26,0-2.54-.02-3.81-.07Z"/></g></g></g></svg>