<?xml version="1.0" encoding="UTF-8"?><svg id="Layer_2" xmlns="http://www.w3.org/2000/svg" viewBox="0 0 146.64 202.93"><defs><style>.cls-1{fill:#8a8a8a;}</style></defs><g id="Layer_1-2"><g><path d="M110.18,202.93h36.46c0-.6-.15-1.19-.15-1.64l-7.4-1.18L98.62,61.99h-3.99l-18.36,52.47c-2.15-2.91-4.15-5.97-6.01-9.18-6.76-11.67-9.47-21.9-10.27-25.44,4.37-.54,8.68-1.5,12.82-3.08,37.41-13.73,38.85-63.26-6.12-74.07-.08-.02-.17-.04-.27-.06l-11.8-1.82C37.86-.87,15.55,.58,0,.59v1.65l7.65,1.2c-.4,45.56,.11,91.28,0,136.83l-6.9,1.04v1.81H36.72v-1.66l-7.65-1.34c0-22.49-.15-36.88-.15-59.49,3.89,0,5.24,.15,8.69,.15,.55-.02,1.07-.03,1.59-.04,4.57,20.12,15.22,38.44,30.28,53.53,.05,.05,.09,.09,.14,.14l-19.87,57.11c-2.81,7.86-10.52,9.05-17.94,9.63v1.79h35.72c-.15-.6-.15-1.19-.15-1.64-5.93-.6-15.41-.3-15.41-6.66,0-.9,.15-1.92,.59-3.12l13.31-38.28,1.14-3.13,4.73-13.62c9.61,9.15,20.88,17.04,33.42,23.33l11.83,40.31-6.82,1.03v1.79Zm-24.15-108.04l11.96,40.69c-7.45-5.15-14.03-11.31-19.69-18.45l7.73-22.23Zm-47.43-17.04c-3.1-.08-6.28-.23-9.68-.23,0-22.02-.15-52.15-.15-74.18,8.32-.01,15.94-1.09,23.5,1.05,3.83,1.01,7.26,2.56,10.3,4.51,25.37,16.32,21,59.64-9.77,67.64-3.19,.83-6.65,1.28-10.39,1.28-1.26,0-2.54-.02-3.81-.07Z"/><path class="cls-1" d="M110.18,202.93h36.46c0-.6-.15-1.19-.15-1.64l-7.4-1.18L98.62,61.99h-3.99l-18.36,52.47c-2.15-2.91-4.15-5.97-6.01-9.18-6.76-11.67-9.47-21.9-10.27-25.44,4.37-.54,8.68-1.5,12.82-3.08,37.41-13.73,38.85-63.26-6.12-74.07-.08-.02-.17-.04-.27-.06l-11.8-1.82C37.86-.87,15.55,.58,0,.59v1.65l7.65,1.2c-.4,45.56,.11,91.28,0,136.83l-6.9,1.04v1.81H36.72v-1.66l-7.65-1.34c0-22.49-.15-36.88-.15-59.49,3.89,0,5.24,.15,8.69,.15,.55-.02,1.07-.03,1.59-.04,4.57,20.12,15.22,38.44,30.28,53.53,.05,.05,.09,.09,.14,.14l-19.87,57.11c-2.81,7.86-10.52,9.05-17.94,9.63v1.79h35.72c-.15-.6-.15-1.19-.15-1.64-5.93-.6-15.41-.3-15.41-6.66,0-.9,.15-1.92,.59-3.12l13.31-38.28,1.14-3.13,4.73-13.62c9.61,9.15,20.88,17.04,33.42,23.33l11.83,40.31-6.82,1.03v1.79Zm-24.15-108.04l11.96,40.69c-7.45-5.15-14.03-11.31-19.69-18.45l7.73-22.23Zm-47.43-17.04c-3.1-.08-6.28-.23-9.68-.23,0-22.02-.15-52.15-.15-74.18,8.32-.01,15.94-1.09,23.5,1.05,3.83,1.01,7.26,2.56,10.3,4.51,25.37,16.32,21,59.64-9.77,67.64-3.19,.83-6.65,1.28-10.39,1.28-1.26,0-2.54-.02-3.81-.07Z"/></g></g></svg>