<?xml version="1.0" encoding="UTF-8"?><svg xmlns="http://www.w3.org/2000/svg" xmlns:xlink="http://www.w3.org/1999/xlink" viewBox="0 0 1801.9 1824.88"><defs><style>.cls-1{fill:#ff926c;}.cls-2,.cls-3{fill:#fff;}.cls-4{fill:#5b2316;}.cls-4,.cls-3,.cls-5,.cls-6,.cls-7,.cls-8,.cls-9,.cls-10{fill-rule:evenodd;}.cls-11{fill:url(#_Áåçûìÿííûé_ãðàäèåíò_118);}.cls-12{opacity:.13;}.cls-12,.cls-13,.cls-14,.cls-15{fill:#aef9ff;}.cls-16,.cls-17{fill:#ffc39e;}.cls-18{fill:#00617f;}.cls-19{fill:#ccfffe;}.cls-20{isolation:isolate;}.cls-21{fill:#44a9b7;opacity:.24;}.cls-13{opacity:.64;}.cls-22{fill:#ff8aae;}.cls-23{fill:#319bad;}.cls-23,.cls-14{opacity:.32;}.cls-24{fill:#c5f8fa;}.cls-25{fill:#89e8e8;}.cls-26{fill:#d600a4;mix-blend-mode:multiply;}.cls-27{fill:#1e7b9b;}.cls-28{fill:#ba004c;}.cls-29{fill:#aa004d;}.cls-30{opacity:.59;}.cls-30,.cls-31{fill:#e1fcff;}.cls-5{fill:#10688e;}.cls-32{fill:url(#_Áåçûìÿííûé_ãðàäèåíò_168);}.cls-33{fill:#01366c;}.cls-34{fill:url(#_Áåçûìÿííûé_ãðàäèåíò_132);}.cls-6{fill:#0b3768;}.cls-35{fill:#79d3d3;}.cls-36{fill:#a0dde5;}.cls-7{fill:#11487f;}.cls-37{fill:#e27964;}.cls-38{fill:url(#_Áåçûìÿííûé_ãðàäèåíò_165);}.cls-39{fill:#b3ecf2;}.cls-40{fill:#0f7396;}.cls-41{fill:#065b80;}.cls-42{fill:url(#_Áåçûìÿííûé_ãðàäèåíò_172);}.cls-43{fill:#003c6d;}.cls-44{fill:#f78769;}.cls-8{fill:#fbb686;}.cls-9{fill:#0a5b89;}.cls-45{fill:#f6a98b;}.cls-46{fill:#004b7f;}.cls-31{opacity:.26;}.cls-15{opacity:.2;}.cls-47{fill:#ff5f94;}.cls-48{fill:#5cbac4;}.cls-49{fill:#e0ffff;}.cls-10{fill:#002b6a;}.cls-17{opacity:.3;}</style><linearGradient id="_Áåçûìÿííûé_ãðàäèåíò_172" x1="700.04" y1="1719.77" x2="1283.5" y2="1136.31" gradientUnits="userSpaceOnUse"><stop offset="0" stop-color="#73bec2"/><stop offset=".36" stop-color="#55aeb8"/><stop offset=".76" stop-color="#3aa0b0"/><stop offset=".99" stop-color="#319bad"/></linearGradient><linearGradient id="_Áåçûìÿííûé_ãðàäèåíò_168" x1="791.35" y1="1187.77" x2="1288.99" y2="1685.42" gradientUnits="userSpaceOnUse"><stop offset="0" stop-color="#3097a8"/><stop offset=".22" stop-color="#369aa9"/><stop offset=".53" stop-color="#49a5af"/><stop offset=".89" stop-color="#68b7b8"/><stop offset="1" stop-color="#73bebb"/></linearGradient><linearGradient id="_Áåçûìÿííûé_ãðàäèåíò_165" x1="1109.38" y1="1824.88" x2="1109.38" y2="1148.23" gradientUnits="userSpaceOnUse"><stop offset="0" stop-color="#73cbc9"/><stop offset=".27" stop-color="#65c1c3"/><stop offset=".77" stop-color="#42a7b4"/><stop offset=".99" stop-color="#319bad"/></linearGradient><linearGradient id="_Áåçûìÿííûé_ãðàäèåíò_118" x1="610.87" y1="1048.27" x2="610.87" y2="1185.99" gradientUnits="userSpaceOnUse"><stop offset="0" stop-color="#aa004d"/><stop offset=".2" stop-color="#a52360"/><stop offset=".42" stop-color="#a04371"/><stop offset=".63" stop-color="#9d5a7d"/><stop offset=".83" stop-color="#9b6885"/><stop offset="1" stop-color="#9b6d88"/></linearGradient><linearGradient id="_Áåçûìÿííûé_ãðàäèåíò_132" x1="734.71" y1="757.49" x2="908.81" y2="1059.04" gradientUnits="userSpaceOnUse"><stop offset="0" stop-color="#e01742"/><stop offset=".15" stop-color="#df1843"/><stop offset=".28" stop-color="#db1f4c"/><stop offset=".49" stop-color="#d23564"/><stop offset=".75" stop-color="#c4588c"/><stop offset="1" stop-color="#b57fb8"/></linearGradient></defs><g class="cls-20"><g id="_Ñëîé_1"><g><polygon class="cls-25" points="-35.4 1824.88 746.47 1824.88 746.47 1433.86 -35.4 1824.88"/><rect class="cls-42" x="805.15" y="1031.2" width="373.24" height="793.68"/><polygon class="cls-32" points="930.78 1048.34 930.78 1824.88 1149.53 1824.88 1149.53 1048.27 930.78 1048.34"/><polygon class="cls-38" points="1038.96 1148.23 1038.96 1824.88 1179.8 1824.88 1179.8 1148.85 1038.96 1148.23"/><rect class="cls-13" x="0" y="1614.42" width="373.24" height="210.47"/><polygon class="cls-35" points="2722.13 444.75 1178.39 1211.68 1178.39 1824.88 2722.13 1824.88 2722.13 444.75"/><path class="cls-12" d="M930.67,1067.93l.08,96.7c83.72-65.94,202.12-29.45,178.66,13.95l28.59-46.1-22-93.4-185.32,28.85Z"/><polygon class="cls-30" points="-376.48 1766.8 -376.48 1824.88 0 1824.88 0 1766.66 -376.48 1766.8"/><polygon class="cls-31" points="392.3 1474.27 498.66 1475.74 498.66 1309.54 392.3 1308.08 392.3 1474.27"/><path class="cls-24" d="M498.57,1309.88l-125.33-62.68L0,1433.86l125.33,62.68c101.82-101.99,298.88,3.45,107.43,53.73l140.48,70.25,373.24-186.66-140.48-70.25c-110.18,86.79-279.59-3.44-107.43-53.73Z"/><path class="cls-49" d="M125.33,1496.54L0,1433.86l-373.24,186.66,125.33,62.68c-26.17,5.16-47.92,15.61-62.66,22.52-69.76,32.67-17.25,78.57,56.38,78.1,37.82-.24,81.2-12.69,116.47-45.51L0,1807.18l373.24-186.66-140.48-70.25c191.45-50.28-5.61-155.72-107.43-53.73Z"/><rect class="cls-21" x="1551.63" y="791.92" width="373.24" height="1032.97"/><path class="cls-2" d="M0,1807.18l-137.72-68.87c-36.15,33.63-79.59,45.88-116.47,45.51-73.63,.47-126.14-45.42-56.38-78.1,14.74-6.91,36.49-17.36,62.66-22.52l-125.33-62.68-48.23,24.12v180.24H-35.4L0,1807.18Z"/><g><path class="cls-39" d="M1685.22,724.69l-133.59-66.81-373.24,186.66,139.56,70.08c9.74-10.78,19.64-20.09,32.34-25.93,116.96-64.27,261.79,37.46,67.74,75.69l133.59,66.81,373.24-186.66-137.72-68.87c-118.46,110.21-315.55-8.88-101.92-50.97Z"/><path class="cls-36" d="M2190.23,578.96c97.85-38.86,33.6-88.94-43.69-81.44-30.61,2.97-62.04,15.42-88.07,40.51l-133.59-66.81-373.24,186.66,133.59,66.81c-213.63,42.09-16.53,161.18,101.92,50.97l137.72,68.87,373.24-186.66-137.72-68.88c11.31-3.23,21.17-6.6,29.84-10.04Z"/><path class="cls-24" d="M1350.29,888.69c-11.8,6.48-23.33,14.62-34.18,24.72l-137.72-68.88-373.24,186.66,125.6,62.83c110.18-86.79,280.45,3.87,108.3,54.15l139.34,69.67,373.24-186.66-133.59-66.81c194.05-38.23,49.22-139.96-67.74-75.69Z"/></g><polygon class="cls-15" points="805.13 1101.68 930.67 1164.41 930.67 1093.99 805.13 1031.22 805.13 1101.68"/><polygon class="cls-15" points="1038.96 1217.6 1178.39 1287.16 1178.39 1217.86 1038.96 1148.26 1038.96 1217.6"/><polygon class="cls-14" points="1178.39 1286.85 2722.13 514.98 2722.13 445.87 1178.39 1217.75 1178.39 1286.85"/><polygon class="cls-13" points="746.47 1433.76 -35.61 1824.88 105.59 1824.88 746.47 1504.38 746.47 1433.76"/></g><g><g><polygon class="cls-46" points="234.45 1293.93 234.89 1302.78 238.22 1362.31 254.24 1369.77 252.74 1339.34 251 1304.25 250.99 1303.91 250.77 1299.49 250.76 1299.36 249.16 1298.84 249.07 1298.81 235.76 1294.4 235.71 1294.36 234.45 1293.93"/><g><polygon class="cls-41" points="250.89 1299.43 320.14 1254.87 320.22 1254.9 322.15 1293.92 252.73 1339.34 250.77 1299.49 250.89 1299.43"/><polygon class="cls-43" points="322.15 1293.92 323.5 1321.19 254.24 1369.77 252.73 1339.34 252.99 1339.22 322.15 1293.92"/></g><path class="cls-40" d="M250.89,1299.43l69.25-44.56-15.87-5.17c-1.65,1.1-69.39,43.36-69.85,43.63l.03,.61,16.44,5.5Z"/><path class="cls-41" d="M260.78,1263.66s1.11,18.71,1.23,20.43c-1.03-.51,1.73,.98,3.1,.78,.43-.13,2.24-1.59,2.24-1.59-.08-.82-.72-14.54-.82-16.64,0,0,2.03-1.28,2.92-1.99,0,0,.14-.17,.21-.21,1.36-1.51,.26-4.51,.26-4.51-.19-.2-.32-.49-.48-.74h0c-1.15,.47-8.66,4.47-8.66,4.47Z"/></g><polygon class="cls-1" points="266.23 1246.38 264.16 1262.12 269.92 1259.92 269.67 1264.43 266.53 1266.63 266.45 1270.18 277.03 1270.79 285.43 1267.45 283.01 1246.38 266.23 1246.38"/><path class="cls-6" d="M276.5,1074.23c-12.45,10.14-15.72,88.06-19.55,105.04l6.06,69.39c5.59,2.48,17.86,3.11,24.29-2.5l-4.11-65.47,6.14-35.79c1.81-24.37-5.34-73.75-12.83-70.68Z"/><path class="cls-23" d="M351.18,1489.5l-84.49-24.89-12.8,11.12,17.72,20.89-22.05-2.02s-163.04-46.96-145.95-60.85c26-21.13,83.01-6.22,83.01-6.22l163.31,35.53,1.25,26.44Z"/><polygon class="cls-10" points="258.85 1455.81 237.54 1445.85 228.85 1453.64 231.51 1471.79 247.53 1486.56 271.61 1496.63 278.92 1483.99 266.68 1464.61 258.85 1455.81"/><path class="cls-10" d="M365.55,1452.06l-29.83-.43-2.5,27.51,5.22,5.3,12.73,5.05,43.81-17.94,1.95-8.51-14.56-15.29s-15.74,4.17-16.83,4.3Z"/><path class="cls-10" d="M288.31,1240.34l-8.05,42.48-14.3,79.16-34.14,71.32-8.11,32.98,19,5.13,23.38-11.82,39.19-88.04,18.22-82.3-32.18-60.86c0,2.32-3.01,11.96-3.01,11.96Z"/><polygon class="cls-7" points="284.61 1233.45 282.53 1268.41 328.37 1303.91 344.98 1376.12 331.8 1464.78 354.66 1473.2 370.79 1459.14 384.98 1361.58 377.99 1256.52 284.61 1233.45"/><path class="cls-8" d="M361.84,1276.91c.71,1.16,5.11,35.68,5.11,35.68l-1.26,9.81,5.11,4.73,16.13-16.66-8.29-31.13-16.8-2.44Z"/><polygon class="cls-3" points="354.66 1279.09 360.79 1300.07 367.81 1303.91 386.93 1293.46 383.65 1282.49 354.66 1279.09"/><polygon class="cls-9" points="376.22 1133 369.44 1104.93 310.75 1065.71 291.94 1062.23 276.5 1074.23 269.63 1104.93 289.61 1181.96 282.25 1234.86 342.22 1273.67 380 1270.49 380.27 1250.78 376.33 1182.07 376.22 1133"/><g><path class="cls-8" d="M346.44,1028.43l-9.22,54.96c2.27-3,24.62-21.17,24.62-21.17v-54.31s-15.4,20.51-15.4,20.51Z"/><path class="cls-8" d="M319.48,1055.01c-1.29,1.52-12.48,18.27-12.48,18.27l17.64,18.27,21.66-.31c0-1.52,.71-27.1,.71-27.1,0,0-26.24-10.66-27.53-9.14Z"/><polygon class="cls-44" points="347.87 1056.93 345.16 1060.64 346.72 1074.77 361.84 1062.23 352.4 1062.6 347.87 1056.93"/><polygon class="cls-4" points="315.4 996.45 301.67 1004.17 297.98 1018.66 305.95 1057.89 332.01 1073.93 348.27 1058.05 352.75 1026.35 365.08 1009.77 365.08 992.85 327.01 987.94 315.4 996.45"/></g><path class="cls-3" d="M329.33,1083.1s-20.75-12.25-20.69-12.34l1.59-2.37-6.46,2.37-.75,5.7,22.72,17.72,23.8-2.57c.57,0-1.49-7.17-1.49-7.17l-18.71-1.35Z"/><path class="cls-5" d="M381.2,1122.02c-4.45-10.84-11.76-17.09-11.76-17.09l-20.84,1.79-9.73,23.51,2.63,82.86,13.96,83.3,11.48,2.58,20.67-11.9-12.92-70.89,6.51-94.17Z"/></g><g><g><path class="cls-47" d="M1040.6,694.87c-18.28-3.19-46.53,6.35-84.63,37.47l56.27-106.24-56.27-27.35-373.24,186.66v133.59c-102.37,6.69-144.05,116.49-105.06,140.37l59.72,29.13s25.49-51.67,45.34-67.57v137.72s56.27,27.35,56.27,27.35l316.97-351.73c8.88-2.02,17.18-4.61,24.96-7.61,38.66-14.9,115.14-75.25,127.22-100.12l-55.97-27.15s-7.12-3.73-11.58-4.51Z"/><polygon class="cls-29" points="582.73 785.4 582.73 918.99 639 946.34 639 812.75 582.73 785.4"/><polygon class="cls-11" points="582.73 1051.3 582.73 1158.63 639 1185.99 639 1048.27 582.73 1051.3"/><path class="cls-28" d="M477.67,1059.36l59.72,29.13s9.18-18.56,20.79-36.86l-91.3-45.66c-7.11,23.25-3.88,44.41,10.79,53.4Z"/><path class="cls-22" d="M513.09,943.79l80.18,40.1,38.67-19.34-79.78-39.9c-14.79,4.41-27.83,11.03-39.07,19.14Z"/><path class="cls-22" d="M986.8,712.85l80.18,40.1,30.13-16.2-79.78-39.9c-14.79,4.41-27.83,11.03-30.53,16Z"/><path class="cls-34" d="M1096.87,722.22c-18.28-3.19-46.53,6.35-84.63,37.47v-133.59s-373.24,186.66-373.24,186.66v133.59c-148.9,9.74-169.42,237.61,0,101.92v137.72s373.24-186.66,373.24-186.66v-137.72c8.88-2.02,17.18-4.61,24.96-7.61,87.77-33.82,105.82-123.73,59.67-131.78Z"/><polygon class="cls-22" points="582.73 785.4 639 812.75 712.64 775.92 639 794.59 582.73 785.4"/></g><polygon class="cls-26" points="606.85 773.33 626.53 776.49 693.03 752.64 741.27 752.49 784.76 731.49 803.7 730.38 813.07 785.78 846.15 816.12 892.2 793.3 892.2 735.53 874.77 638.5 606.85 773.33"/><g><path class="cls-33" d="M382.43,67.04L111.48,264.47l90.71,155.93,28.24,8.46s76.82-28.09,79.3-28.09S466.07,99.2,466.07,99.2l-27.42-38.48-56.23,6.32Z"/><polygon class="cls-48" points="441.24 121.56 293.37 222.34 249.59 368.56 290.8 440.62 364.41 432.99 539.98 163.69 513.93 111.65 441.24 121.56"/><g><polygon class="cls-45" points="845.12 454.59 873.36 566.74 858.37 647.82 833.08 693.51 829.75 761.31 852.96 801.71 904.69 778.01 916.55 749.71 957.91 682.06 976.48 541.05 926.06 365.63 845.12 454.59"/><polygon class="cls-16" points="518.08 129.11 444.33 75.95 122.61 277.52 319.16 421.28 364.68 515.65 469.98 616.97 480.31 690.31 620.36 766.6 662.91 731.66 716.21 736.4 773.06 693.51 829.75 678.5 876.18 628.71 901.98 650.74 926.06 365.63 767.06 266.45 518.08 129.11"/><path class="cls-45" d="M908.9,365.63c2.4,2.72-19.41,41.36-19.41,41.36l-56.42,11.84-34.75,46.92-66.62,3.77-19.22,54.63-76.18,4.71-37.67,54.34h-76.89l-129.76-89.57-15.21-124.8-79.65-72.09-113.77-16.99,19.69,56.62,116.1,84.91,45.51,94.37,105.31,101.32,10.33,73.34,140.05,76.29,42.55-34.94,53.3,4.74,56.85-42.89,56.69-15.01,46.44-49.78,25.8,22.03,24.08-285.12-34.1-21.27,16.95,21.27Z"/><path class="cls-37" d="M899.68,594.94l-40.7-106.43,20.77,132.07-62.36,37.41-51.03-100.03,28.87,106.32-81.61,36.05-43.77-105.39s16.36,98.12,16.36,100.42l-83.07,28.22-28.39-59.31-104.52-45.63,.25,1.75-4.39,30.33,14.24,39.57,140.05,76.29,52.48-34.06,43.37,3.86,56.85-42.89,56.69-15.01,17.94-19.23-14.61,34.24-3.33,67.8,23.22,40.4,62.5-23.69,4.56-33.32,37.89-62.64-65.4,30.65,7.17-117.76Z"/><polygon class="cls-17" points="875.5 751.05 865.99 782.3 875.5 791.23 912.63 776.92 918.41 740.25 918.41 725.89 888.42 736.92 875.5 751.05"/></g><path class="cls-2" d="M312.62,14.21l-74.14,41.53L59.05,260.91l170.56,142.87,61.19,36.84-15.68-71.81,22.02-110.4s214.05-146.77,216.79-146.77L353.93,14.21h-41.32Z"/><polygon class="cls-27" points="187.16 330.69 212.07 211.07 438.85 60.72 327.74 0 -421.47 0 -421.47 59.28 202.38 420.4 187.16 330.69"/><polygon class="cls-19" points="175.47 190.95 175.47 371.86 290.8 440.62 275.12 368.82 297.14 258.42 175.47 190.95"/><polygon class="cls-18" points="186.89 330.69 211.81 211.07 -150.39 0 -421.47 0 -421.47 58.4 202.12 420.4 186.89 330.69"/></g></g></g></g></svg>