<?xml version="1.0" encoding="UTF-8"?><svg id="_Ñëîé_1" xmlns="http://www.w3.org/2000/svg" viewBox="0 0 1936.88 1687.7"><defs><style>.cls-1,.cls-2,.cls-3{fill:#168ca8;}.cls-4{fill:#ffe34a;}.cls-5{fill:#e69c83;}.cls-6,.cls-7{fill:#fff;}.cls-2{opacity:.21;}.cls-8{fill:#fbb686;}.cls-9{fill:#f89c69;}.cls-10{fill:#ea7a00;}.cls-11{fill:#d43e3e;}.cls-12{fill:#63f2ff;}.cls-13{fill:#3dbfc9;}.cls-14{fill:#67a329;}.cls-7,.cls-15,.cls-16,.cls-17,.cls-18{fill-rule:evenodd;}.cls-15,.cls-19{fill:#f9a873;}.cls-20{fill:#47c7d1;opacity:.41;}.cls-21{fill:#9af4f4;}.cls-22{fill:#02567d;}.cls-23{fill:#d62222;}.cls-24{isolation:isolate;}.cls-25{fill:#057893;}.cls-26{fill:#ff786e;}.cls-27{fill:#b33939;}.cls-28{fill:#56d5d8;}.cls-29{fill:#fda014;}.cls-30{fill:#00638e;opacity:.37;}.cls-31{fill:#6abfce;}.cls-32{fill:#0a3075;}.cls-33{fill:#0f506c;opacity:.5;}.cls-34{fill:#028e51;}.cls-35{opacity:.54;}.cls-35,.cls-36{fill:#defffc;}.cls-37{fill:#d84021;}.cls-38{fill:#8c0303;}.cls-39{fill:#358c11;}.cls-40{fill:#2697b2;opacity:.38;}.cls-41{opacity:.58;}.cls-41,.cls-42{fill:#86e2de;}.cls-43{opacity:.64;}.cls-44{fill:#ffb000;}.cls-45{fill:#002756;}.cls-46{fill:#ff5542;}.cls-47{fill:#731f00;}.cls-48,.cls-17{fill:#003d75;}.cls-49{fill:#dcffff;}.cls-50{fill:#f66;}.cls-51{fill:#e50505;}.cls-52{fill:#ea8b00;}.cls-53{fill:#c5fffd;}.cls-54{fill:#ed9f19;}.cls-55{fill:#95d94c;}.cls-56{fill:#33b3c4;}.cls-57,.cls-58{fill:#1d99b3;}.cls-59,.cls-16{fill:#11487f;}.cls-60{fill:#ffbf00;}.cls-61{fill:#74c8d6;}.cls-62{fill:#30b7c1;}.cls-63{fill:#ffe44a;}.cls-64{fill:#020009;}.cls-65{fill:#9cefef;}.cls-66{fill:#fcfefe;}.cls-67{fill:#ed604f;}.cls-68{fill:#ffc104;}.cls-69{fill:#8f2a1f;}.cls-70{fill:#683315;}.cls-71{opacity:.34;}.cls-72{fill:#351a0a;}.cls-73{fill:#1c4f66;}.cls-74{fill:#e08910;}.cls-75{fill:#f15c24;}.cls-76{fill:#70e2e5;}.cls-77{fill:#008c99;}.cls-78{fill:#ffd939;}.cls-79{fill:#fdfdfd;}.cls-80{fill:#e5b28c;}.cls-81{fill:#fff576;}.cls-82{fill:#ab3529;}.cls-83{fill:#a61d1d;}.cls-84{fill:#00adbd;}.cls-85{fill:#ff815a;}.cls-86{fill:#00234c;opacity:.51;}.cls-87{fill:#94e5ed;}.cls-88{fill:#ffdf5a;}.cls-3{opacity:.57;}.cls-89{fill:#ffc4dd;}.cls-90{fill:#0f6b93;}.cls-91{fill:#bff7f3;}.cls-92{fill:#006a82;}.cls-93,.cls-18{fill:#002b6a;}.cls-94{fill:#fa7564;}.cls-95{fill:#efefef;}.cls-96{fill:#9fedeb;}.cls-97{fill:#53cad3;}.cls-98{fill:#18617c;}.cls-99{fill:#b9e5fb;}.cls-100{fill:#184a5b;}.cls-101{fill:#ffad91;}.cls-102{fill:#ffbc27;}.cls-103{fill:#2ece6f;}.cls-104{fill:#e04419;}.cls-105{fill:#ff5252;}.cls-106{fill:#35c473;}.cls-107{fill:#060115;}.cls-108{fill:#5fd37a;}.cls-58{opacity:.3;}.cls-109{fill:#ed9718;}.cls-110{fill:#29acc1;}.cls-111{fill:#ffc32c;}</style></defs><g class="cls-71"><polygon class="cls-57" points="404.04 845.99 934.59 580.94 1828.86 1036.16 1299.93 1300.78 404.04 845.99"/></g><g class="cls-71"><polygon class="cls-57" points="112.48 1273.93 582.7 1038.38 1173.22 1335.08 704.62 1570.2 112.48 1273.93"/></g><g class="cls-71"><polygon class="cls-57" points="1895.24 1401.03 1655 1280.68 1199.63 1509.76 1438.25 1629.67 1895.24 1401.03"/></g><g class="cls-71"><polygon class="cls-57" points="1729.01 637.7 1496.95 520.45 1279.52 630.1 1509.97 746.92 1729.01 637.7"/></g><g class="cls-71"><polygon class="cls-57" points="386.13 681.51 250.9 613.18 33.46 722.84 167.08 790.73 386.13 681.51"/></g><g><polygon class="cls-111" points="1160.94 299.82 1160.77 287.94 997.44 199.95 997.61 211.83 1160.94 299.82"/><polygon class="cls-26" points="1153.66 349.13 1153.48 337.25 1031.78 272.79 1031.96 284.67 1153.66 349.13"/><polygon class="cls-89" points="1153.66 386.22 1153.48 374.34 1075.74 334.74 1075.91 346.63 1153.66 386.22"/><path class="cls-108" d="M1175.76,302.79c.17,11.11,10.52,24.58,23.13,30.07,36.45,12.15,22.32-32.64-.62-40.24-12.6-5.5-22.68-.94-22.51,10.17Z"/><path class="cls-26" d="M1174.13,351.32c.12,7.78,7.37,17.21,16.2,21.06,25.37,8.54,15.66-23.01-.43-28.19-8.83-3.85-15.89-.66-15.77,7.12Z"/><path class="cls-4" d="M1178.29,390.96c.06,4.02,3.81,8.89,8.36,10.87,12.91,4.4,8.16-11.99-.22-14.55-4.56-1.99-8.2-.34-8.14,3.68Z"/></g><polygon class="cls-49" points="1348 1208.03 1369.5 1218.69 1479.8 1163.96 1479.8 1152.88 1348 1197.07 1348 1208.03"/><polygon class="cls-6" points="1348 1197.07 1369.5 1207.72 1479.8 1152.96 1458.3 1142.31 1348 1197.07"/><polygon class="cls-49" points="1383.82 1241.66 1405.32 1252.31 1513.06 1198.84 1513.06 1187.77 1383.82 1230.7 1383.82 1241.66"/><polygon class="cls-6" points="1383.82 1230.7 1405.32 1241.35 1513.06 1187.86 1491.57 1177.21 1383.82 1230.7"/><polygon class="cls-49" points="1421.74 1277.96 1443.24 1288.61 1542.36 1239.33 1542.36 1228.25 1421.74 1267 1421.74 1277.96"/><polygon class="cls-6" points="1421.74 1267 1443.24 1277.65 1542.36 1228.44 1520.86 1217.78 1421.74 1267"/><polygon class="cls-49" points="923.55 1045.1 902.05 1055.76 791.75 1001.02 791.75 989.95 923.55 1034.14 923.55 1045.1"/><polygon class="cls-6" points="923.55 1034.14 902.05 1044.79 791.75 990.03 813.25 979.38 923.55 1034.14"/><polygon class="cls-49" points="887.73 1078.73 866.23 1089.38 758.49 1035.91 758.49 1024.84 887.73 1067.76 887.73 1078.73"/><polygon class="cls-6" points="887.73 1067.76 866.23 1078.42 758.49 1024.93 779.98 1014.28 887.73 1067.76"/><polygon class="cls-49" points="849.8 1115.03 828.31 1125.68 729.19 1076.39 729.19 1065.32 849.8 1104.06 849.8 1115.03"/><polygon class="cls-6" points="849.8 1104.06 828.31 1114.72 729.19 1065.5 750.69 1054.85 849.8 1104.06"/><polygon class="cls-49" points="1690.07 1009.79 1579.39 926.91 1048.82 691.76 393.62 720.74 393.62 723.38 393.6 753.27 1304.33 1203.59 1690.07 1009.79"/><polygon class="cls-6" points="1729.78 960.11 818.33 506.98 393.62 720.74 1303.88 1173.55 1729.78 960.11"/><polygon class="cls-65" points="1304.32 1173.7 1304.31 1203.59 1729.98 989.74 1730 959.85 1304.32 1173.7"/><polygon class="cls-49" points="1027.46 1328.54 916.79 1245.66 712.67 1170.75 144.59 1155.88 144.59 1158.52 144.57 1188.41 728.85 1478.49 1027.46 1328.54"/><polygon class="cls-6" points="1069.43 1277.92 482.17 985.97 144.57 1155.63 730.63 1447.27 1069.43 1277.92"/><polygon class="cls-65" points="728.86 1448.59 728.85 1478.49 1068.31 1307.84 1068.33 1277.95 728.86 1448.59"/><polygon class="cls-65" points="1243.17 1447.02 1328.97 1382.77 1487.21 1324.7 1895.22 1296.73 1895.22 1298.78 1895.24 1321.95 1442.29 1546.82 1243.17 1447.02"/><polygon class="cls-6" points="1241.49 1423.11 1696.74 1196.78 1895.24 1296.54 1440.91 1522.62 1241.49 1423.11"/><polygon class="cls-49" points="1442.28 1523.65 1442.29 1546.82 1241.5 1446.28 1241.49 1423.11 1442.28 1523.65"/><polygon class="cls-49" points="1692.48 590.43 1606.68 526.18 1493.54 501.8 1313.89 573.26 1313.89 575.31 1313.88 593.89 1499.02 688.57 1692.48 590.43"/><polygon class="cls-6" points="1698.38 565.78 1512.37 473.31 1313.88 573.07 1498.96 665.3 1698.38 565.78"/><polygon class="cls-65" points="1499.03 665.4 1499.02 688.57 1699.81 588.03 1699.82 564.86 1499.03 665.4"/><polygon class="cls-49" points="363.59 629.19 277.79 564.94 222.62 570.2 42.96 640.71 42.96 662.29 170.13 727.33 363.59 629.19"/><polygon class="cls-6" points="369.49 604.54 241.46 540.95 42.96 640.71 170.07 704.05 369.49 604.54"/><polygon class="cls-65" points="170.14 704.15 170.13 727.33 369.49 627.5 369.5 604.33 170.14 704.15"/><g><polygon class="cls-68" points="704.62 1145.4 704.51 1164.7 617.62 1215.19 617.72 1195.91 704.62 1145.4"/><path class="cls-63" d="M704.62,1145.4l-86.9,50.51-87.48-50.51c23.98-13.95,55.5-20.92,87.07-20.92s63.16,6.97,87.31,20.92Z"/><polygon class="cls-68" points="617.72 1195.91 617.62 1217.62 530.13 1167.12 530.24 1145.4 617.72 1195.91"/><polygon class="cls-77" points="602.23 1193.57 602.12 1218.2 487.6 1241.02 487.7 1219.85 602.23 1193.57"/><path class="cls-23" d="M744.52,1200.65l-.11,21.15c-.05,18.15-11.97,36.3-35.81,50.14-24,13.95-55.53,20.94-87.09,20.92l.1-21.15c31.56,0,63.08-6.95,87.09-20.92,23.84-13.87,35.77-31.98,35.82-50.14Z"/><path class="cls-46" d="M708.13,1149.78c12.35,7.12,21.54,15.38,27.62,24.21,17.65,25.68,8.69,56.03-27.04,76.8-24,13.97-55.53,20.92-87.09,20.92l-.39-71.42,86.9-50.51Z"/><path class="cls-55" d="M617.72,1195.91l.39,71.42c-31.56,0-63.15-6.95-87.31-20.92-12.34-7.14-21.55-15.41-27.61-24.22l114.53-26.28Z"/><path class="cls-14" d="M618.11,1267.33l-.1,21.15c-31.56,0-63.15-6.97-87.31-20.92-12.35-7.14-21.54-15.4-27.61-24.2l.1-21.17c6.06,8.81,15.27,17.07,27.61,24.22,24.16,13.97,55.75,20.92,87.31,20.92Z"/><path class="cls-77" d="M487.6,1241.02s-39.65-56.51,27.15-97.97l-27.15,97.97Z"/><path class="cls-12" d="M514.75,1143.05l87.48,50.52-114.53,26.28c-17.65-25.67-8.69-56.03,27.05-76.8Z"/></g><g class="cls-24"><polygon class="cls-84" points="1599.01 1328.2 1643.33 1350.68 1643.98 1181.96 1599.66 1159.48 1599.01 1328.2"/><polygon class="cls-12" points="1599.66 1159.48 1643.98 1181.96 1692.14 1158.56 1647.82 1136.08 1599.66 1159.48"/><polygon class="cls-77" points="1643.33 1350.68 1691.49 1327.29 1692.14 1158.56 1643.98 1181.96 1643.33 1350.68"/></g><g class="cls-24"><polygon class="cls-106" points="1537.9 1357.89 1582.23 1380.37 1582.62 1250.15 1538.3 1227.66 1537.9 1357.89"/><polygon class="cls-55" points="1538.3 1227.66 1582.62 1250.15 1630.78 1226.75 1586.46 1204.27 1538.3 1227.66"/><polygon class="cls-39" points="1582.23 1380.37 1630.38 1356.97 1630.78 1226.75 1582.62 1250.15 1582.23 1380.37"/></g><g class="cls-24"><polygon class="cls-11" points="1476.79 1387.57 1521.12 1410.06 1521.62 1311.29 1477.29 1288.81 1476.79 1387.57"/><polygon class="cls-94" points="1477.29 1288.81 1521.62 1311.29 1569.81 1287.88 1525.49 1265.4 1477.29 1288.81"/><polygon class="cls-83" points="1521.12 1410.06 1569.31 1386.64 1569.81 1287.88 1521.62 1311.29 1521.12 1410.06"/></g><g class="cls-24"><polygon class="cls-44" points="1415.72 1416.65 1460.04 1439.13 1460.32 1378.65 1415.99 1356.17 1415.72 1416.65"/><polygon class="cls-63" points="1415.99 1356.17 1460.32 1378.65 1508.48 1355.26 1464.15 1332.77 1415.99 1356.17"/><polygon class="cls-74" points="1460.04 1439.13 1508.2 1415.73 1508.48 1355.26 1460.32 1378.65 1460.04 1439.13"/></g><g class="cls-24"><polygon class="cls-84" points="430.66 1062.57 474.99 1085.05 475.64 916.33 431.31 893.84 430.66 1062.57"/><polygon class="cls-12" points="431.31 893.84 475.64 916.33 523.8 892.93 479.47 870.45 431.31 893.84"/><polygon class="cls-77" points="474.99 1085.05 523.15 1061.65 523.8 892.93 475.64 916.33 474.99 1085.05"/></g><g class="cls-24"><polygon class="cls-106" points="369.55 1092.26 413.88 1114.74 414.27 984.51 369.95 962.03 369.55 1092.26"/><polygon class="cls-55" points="369.95 962.03 414.27 984.51 462.43 961.12 418.11 938.64 369.95 962.03"/><polygon class="cls-39" points="413.88 1114.74 462.04 1091.34 462.43 961.12 414.27 984.51 413.88 1114.74"/></g><g class="cls-24"><polygon class="cls-11" points="308.44 1121.94 352.77 1144.42 353.27 1045.66 308.94 1023.18 308.44 1121.94"/><polygon class="cls-94" points="308.94 1023.18 353.27 1045.66 401.46 1022.25 357.14 999.77 308.94 1023.18"/><polygon class="cls-83" points="352.77 1144.42 400.96 1121.01 401.46 1022.25 353.27 1045.66 352.77 1144.42"/></g><g class="cls-24"><polygon class="cls-11" points="884.38 1302.97 928.7 1325.45 929.21 1226.69 884.88 1204.21 884.38 1302.97"/><polygon class="cls-94" points="884.88 1204.21 929.21 1226.69 977.4 1203.28 933.07 1180.8 884.88 1204.21"/><polygon class="cls-83" points="928.7 1325.45 976.9 1302.04 977.4 1203.28 929.21 1226.69 928.7 1325.45"/></g><g class="cls-24"><polygon class="cls-44" points="247.37 1151.02 291.69 1173.5 291.97 1113.02 247.65 1090.54 247.37 1151.02"/><polygon class="cls-63" points="247.65 1090.54 291.97 1113.02 340.13 1089.62 295.81 1067.14 247.65 1090.54"/><polygon class="cls-74" points="291.69 1173.5 339.85 1150.1 340.13 1089.62 291.97 1113.02 291.69 1173.5"/></g><g class="cls-24"><polygon class="cls-29" points="1577.42 1218.98 1556.38 1208.85 1600.92 1105.36 1621.96 1115.49 1577.42 1218.98"/><polygon class="cls-88" points="1599.52 1104.99 1578.48 1094.86 1639.74 1036.16 1660.78 1046.29 1599.52 1104.99"/><polygon class="cls-81" points="1488.09 1227.77 1467.06 1217.63 1556.38 1208.85 1577.42 1218.98 1488.09 1227.77"/><polygon class="cls-29" points="1403.49 1422.88 1382.46 1412.75 1467.06 1217.63 1488.09 1227.77 1403.49 1422.88"/><polygon class="cls-10" points="1599.52 1104.99 1660.78 1046.29 1659.46 1133.04 1637.01 1122.49 1586.45 1239.94 1497.04 1248.77 1418.52 1429.99 1403.49 1422.88 1488.09 1227.77 1577.42 1218.98 1621.96 1115.49 1599.52 1104.99"/></g><g><path class="cls-56" d="M206.67,500.41c-29.96,17.92-53.75,60.6-53.12,95.34,.31,17.2,6.55,29.22,16.4,34.81l18.73,9.09c6.64-.65,12.64-8.89,20.26-13.44,29.96-17.92,53.75-60.6,53.12-95.34-.2-10.99,2.58-21.04-1.85-27.48l-20.62-9.83c-9.24-2.53-20.64-.49-32.92,6.85Z"/><ellipse class="cls-61" cx="221.85" cy="570.32" rx="77.17" ry="44.7" transform="translate(-384.1 484.82) rotate(-60.71)"/><g><path class="cls-91" d="M220.77,620.25c23.79-14.22,42.67-48.11,42.17-75.69-.3-16.38-7.39-26.79-18.07-29.61,13.12,.86,22.17,11.78,22.5,30.34,.5,27.58-18.38,61.46-42.17,75.69-9.66,5.78-18.61,7.36-25.91,5.43,6.38,.42,13.7-1.51,21.48-6.16Z"/><path class="cls-6" d="M218.96,520.38c9.66-5.78,18.61-7.36,25.91-5.43,10.68,2.82,17.77,13.23,18.07,29.61,.5,27.58-18.38,61.46-42.17,75.69-7.78,4.65-15.1,6.58-21.48,6.16-13.12-.86-22.17-11.78-22.5-30.34-.5-27.58,18.38-61.46,42.17-75.69Z"/></g><path class="cls-90" d="M221.65,527.65c-1.8,1.08-3.23,3.64-3.19,5.72,.04,2.08,1.52,2.9,3.33,1.82,1.8-1.08,3.23-3.64,3.19-5.71-.04-2.09-1.52-2.9-3.33-1.83Z"/><path class="cls-90" d="M223.06,605.4c-1.8,1.08-3.23,3.64-3.19,5.72,.04,2.08,1.52,2.9,3.33,1.82,1.8-1.08,3.23-3.64,3.19-5.71-.04-2.09-1.52-2.9-3.33-1.83Z"/><path class="cls-90" d="M255.88,546.48c-1.79,1.07-3.22,3.64-3.18,5.72,.04,2.09,1.52,2.9,3.32,1.83,1.8-1.08,3.23-3.64,3.19-5.72-.04-2.08-1.52-2.9-3.33-1.83Z"/><path class="cls-90" d="M188.82,586.57c-1.8,1.08-3.23,3.64-3.19,5.72,.04,2.09,1.52,2.9,3.33,1.83,1.79-1.07,3.22-3.63,3.18-5.72-.04-2.08-1.52-2.91-3.32-1.83Z"/><path class="cls-90" d="M195.72,600.02c.51,.8,1.82,.49,2.89-.67l26.51-28.08c.52-.56-.17-1.44,.03-2.14,0,0-13.19-19.01-13.76-18.88-1.12,.26-3.5,2.75-2.71,4.02l12.14,16.95-24.09,25.24c-1.07,1.15-1.54,2.77-1.02,3.57Z"/><path class="cls-13" d="M222.21,564.88c-2.6,1.55-4.65,5.24-4.6,8.26,.05,3,2.2,4.18,4.8,2.63,2.6-1.55,4.65-5.25,4.6-8.24-.05-3.01-2.2-4.19-4.8-2.64Z"/><path class="cls-6" d="M222.29,568.81c-.72,.43-1.29,1.45-1.27,2.28,.01,.83,.61,1.16,1.33,.73,.72-.43,1.29-1.45,1.27-2.28-.02-.83-.61-1.16-1.33-.73Z"/></g><path class="cls-65" d="M692.47,133.5l-17.01-9.27-.03,.04c-4.39-2.7-10.25-3.31-15.47-.52l-243.16,129.82c-7.99,4.26-12.91,12.15-12.91,20.68v181.11c0,4.97,2.8,9,6.75,11.36h0c4.37,3.01,9.67,4.36,14.95,3.82l20.48-2.13-4.31-9.69,227.38-121.39c7.99-4.27,12.91-12.15,12.91-20.68V147.02l10.43-13.52Z"/><path class="cls-56" d="M420.19,283.09v164.47c0,16.1,17.16,26.39,31.36,18.81l235.53-125.74c6.94-3.71,11.28-10.94,11.28-18.81V144.39c0-10.49-12.27-17.04-22.09-11.79l-243.16,129.82c-7.99,4.26-12.91,12.15-12.91,20.68Z"/><polygon class="cls-66" points="434.41 284.04 434.41 448.26 679.64 318.67 679.64 153.12 434.41 284.04"/><g class="cls-24"><polygon class="cls-11" points="608.51 257.85 592.03 249.91 626.92 168.83 643.4 176.77 608.51 257.85"/><polygon class="cls-94" points="625.82 168.54 609.34 160.6 657.33 114.62 673.81 122.55 625.82 168.54"/><polygon class="cls-94" points="538.52 264.73 522.04 256.79 592.03 249.91 608.51 257.85 538.52 264.73"/><polygon class="cls-11" points="466.24 431.44 440.4 445.1 522.04 256.79 538.52 264.73 466.24 431.44"/><polygon class="cls-83" points="625.82 168.54 673.81 122.55 672.78 190.51 655.19 182.25 615.58 274.26 545.54 281.18 484.65 421.71 466.24 431.44 538.52 264.73 608.51 257.85 643.4 176.77 625.82 168.54"/></g><g><path class="cls-58" d="M653.24,703.47c-15.87,15.87-57.21,28.74-92.35,28.74s-50.75-12.87-34.88-28.74c15.87-15.87,57.21-28.74,92.35-28.74s50.75,12.87,34.88,28.74Z"/><polygon class="cls-18" points="626.23 680.43 626.23 687.79 614.85 694.17 584.62 680.43 582.7 660.26 607.02 664.74 626.23 680.43"/><path class="cls-18" d="M561.89,706.03c-.96,0-21.76,3.52-21.76,3.52l-8.32,10.94,3.2,4.1,48.58,4.78,5.38-5.16,3.98-3.72-5.12-17.03-25.93,2.56Z"/><path class="cls-18" d="M604.78,507.73c0,1.46,2.24,7.54,2.24,7.54l3.84,28.59,6.4,56.87,11.2,51.85v31.05l-11.84,4.16-16.96-11.52-18.88-97.62,24.01-70.92Z"/><path class="cls-17" d="M540.13,529.35s1.6,79.06,2.24,80.02c.64,.96,17.28,101.46,17.28,101.46,0,0,12.48,10.56,13.44,9.6s20.48-8.32,20.48-8.32l-12.48-77.78s4.43-70.96,5.12-71.7c4.8-5.13,24.08-22.98,24.08-22.98l-3.28-24.39-66.9,14.08Z"/><path class="cls-15" d="M479.6,382.11c0-.96-10.88-21.44-10.88-21.44l5.44-17.92,3.2,1.92,.64,8.32,3.84,1.92,5.01,.42,1.71,21.35-8.96,5.44Z"/><polygon class="cls-15" points="532.16 341.92 523.84 326.03 530.56 316.74 530.24 305.54 532.17 302.34 537.93 314.82 541.8 332.17 532.16 341.92"/><polygon class="cls-7" points="473.29 373.37 473.87 380.06 480.4 392.16 489.46 377.89 488.56 366.83 473.29 373.37"/><polygon class="cls-7" points="530.97 343.4 528.2 339.53 527.66 335.21 543.09 327.03 544.49 330.26 530.97 343.4"/><path class="cls-18" d="M563.55,441.23l-54.41-23.37-20.57-48.05-15.87,7.14-1.43,5.16,21.55,56.23,57.93,35.53h14.4s12.8-16.32-1.6-32.65Z"/><polygon class="cls-18" points="530.69 336.23 544.45 327.89 565.19 368.41 614 403.88 599.44 421.22 547.91 388.25 528.79 343.74 530.69 336.23"/><polygon class="cls-18" points="546.49 433.76 601.97 403.88 613.92 403.88 620.74 433.76 603.67 489.24 611.36 515.7 561.85 543.86 537.72 536.22 538.43 525.74 541.37 482.41 537.95 450.83 546.49 433.76"/><path class="cls-15" d="M563.17,426.61v-18.56s19.52-6.72,20.48-5.76c.96,.96,9.28,11.52,9.28,11.52l-13.12,11.52-16.64,1.28Z"/><path class="cls-15" d="M571.1,416.85c-.32-1.28-17.42-17.02-17.42-17.02v-25.51l9.92,11.2,7.49,31.33Z"/><polygon class="cls-16" points="549.73 369.6 566.38 357.36 586.43 360.42 598.66 376.05 594.21 408.06 573.56 416.85 561.33 403.88 558.9 384.21 549.73 369.6"/><path class="cls-7" d="M591.73,412.21c.04,.05-14.63,9.29-14.63,9.29l-14,2.21s-1.45,3.26-1.03,3.26h16.94l16.9-11.18-.56-3.59-4.8-1.5,1.18,1.5Z"/></g><g><path class="cls-58" d="M740.6,677.81c13.84,8.64,48.72,2.83,77.92-12.98,29.2-15.81,41.65-35.62,27.81-44.26-13.84-8.64-48.72-2.83-77.92,12.98-29.2,15.81-41.65,35.62-27.81,44.26Z"/><path class="cls-8" d="M896.97,394.71l-14.07,2.63-1.46-4.36-.14-.07-5.06,2.21-4.85,.42s-2.92,4.04-3.83,6.11v.11c-.25,4.46,.18,15.4,.18,15.4l23.06-2.67,.11,.11,.84-1.09,7.26-16.17-2.01-2.63Z"/><path class="cls-99" d="M869.2,419.46l-6.76,1.01,.33-19.01,4.75-.56,.03-.03c-.25,4.46,1.65,18.6,1.65,18.6Z"/><path class="cls-45" d="M866.71,423.37l-44.01,5.91s-5.13-7.45-6.96-11.92c.39-10.16-3.39-77.26-3.39-77.26l5,8.82s2.78,6.43,3.76,9.42c2.04,5.55,3.52,11.71,5.27,17.58,1.16,4.39,5.91,22.53,7.59,26.47,6.99,.04,26.58-2.78,28.82-2.99,0,.63,3.17,23.16,3.9,23.97Z"/><path class="cls-93" d="M842.45,639.02l-9.46-10.86-4.99-8.79-.07,.03s-19.83-5.16-26.58-.91c-.21,2.46-.98,9.32-1.09,10.72,.53,.53,16,11.13,17.12,12.08,.88,.81,12.62,9.36,12.62,9.36l12.13-6.36,.32-5.27Z"/><path class="cls-64" d="M772.15,538.17c.17,.11,.35,.17,.53,.25l-.53,.24v-.49Z"/><polygon class="cls-107" points="758.93 544.53 758.93 544.64 758.82 544.61 758.93 544.53"/><path class="cls-93" d="M795.06,660.82l-9.82-8.64s-3.57-6.61-4.14-7.77c-.04-.03-.04-.11-.07-.14-1.01-1.93-25.33-5.29-29.98-.46-.03,.11-.84,5.45-.95,6.92,1.16,1.13,3.16,2.85,5.66,4.89,.6-1.16,2.28-.74,3.23-.04,1.51,1.09,1.79,2.71,2.11,4.29,7.48,5.76,20.53,13.5,20.53,13.5v-.03c2.5,.03,13.08-6.82,13.08-6.82l.35-5.69Z"/><path class="cls-93" d="M820.62,505.3c-.25-3.13-.49-6.25-.7-9.28-.25-3.44-.53-6.75-.77-9.98-.14-2.11-.84-11.42-1.06-13.99-.21-3.16-.45-6.15-.63-9-.04-.28-70.79,24.64-71.43,24.33-.18,2.25-.35,4.5-.45,6.68,.1,3.06,1.26,17.33,1.26,17.33,0,0,3.45,102.33,3.94,112.73l-1.55,18.77,11.59,6.3,20.68-5.14,6.08-111.37s11.74,79.16,13.08,84.96c.24,.28,9.76,4.47,9.76,4.47l17.51-2.71,.07-.03v-.03c.04-15.33-3.97-68.65-7.38-114.04Z"/><path class="cls-9" d="M744.36,505.57c.35,1.62,.6,3.34,.88,4.89-.84-.42-1.79-.81-2.92-1.13l-.11-.07c.53-1.05,.74-2.25,.84-3.48,.46-.07,.88-.14,1.3-.21Z"/><path class="cls-19" d="M742.62,510.61l-.1-.25c.17-.21,.28-.49,.42-.74,.64-2.32,.99-6.54,.84-4.98-6.01,.81-12.31,0-18.03-.32-.46,1.93-.46,3.87-.28,5.73,.03,.14,.03,.32,.03,.46,.21,1.72,.56,3.27,.88,4.64,4.31,7.73,10.07,11.93,14.74,13.16,1.05-1.06,.72-15.8,1.5-17.7Z"/><path class="cls-31" d="M744.45,505.63l-14.58,.47-4.75-2.09,.39-4.52,18.95,.23c.67,.91,0,5.91,0,5.91Z"/><path class="cls-93" d="M815.78,440.93s-.43-14.75-.04-23.57c.38-10.16,5.16-54.05,5.16-54.05l-8.55-23.21-20.34-5.03-37.4,17.89-27.31,25.64s-3.73,82.91-3.59,95.32c.07,5.48,.46,22.22,.46,25.13,.03,.04,3.94,3.51,3.94,3.51,0,0,17.03-.51,17.29-.8,0-.35,0-.67-.03-.99,0-2.11,.49-11.14,.67-13.39,.63,.31,18.33,3.02,18.33,3.02l54.61-24.2-3.2-25.28Z"/><path class="cls-59" d="M798.72,398.76c.42-5.87,3.8-11.71,3.13-17.58-.03-.53-.1-1.09-.18-1.62-.88-6.86-2.22-13.46-4.6-20-.6-1.76-1.65-3.94-3.02-5.91-.28-.42-.56-.77-.84-1.16-1.93-2.46-4.25-4.5-6.71-4.88,1.69-.63,3.9-1.79,5.45-3.02,1.62,.77,8.58,6.79,8.58,6.79l-1.48,5.66,7.14,2.5,1.9,10.05s-7.66,41.84-8.71,44.69c.81-2.5-1.7-6.87-1.03-9.55,.46-1.86,.33-4.17,.4-5.97Z"/><path class="cls-59" d="M763.89,360.69c1.55,1.97,3.48,3.69,5.06,4.92,1.05,.74,2.07,1.51,3.09,2.22,4.36,3.02,8.37,5.66,12.09,9.81,4.92,5.38,9,12.2,11.64,18.98,.11,.25,.21,.53,.32,.81,.99,2.95,1.27,6.36,1.41,9.77,.07,2.21,.94,6.5,.94,6.5l-1.86-5.84c-2.92-8.08-13.08-17.96-13.08-17.96l-15.3-7.24,.19-7.39-6.08,.99-3.44-7.35s-5.38-11.6-4.25-15.96c.25-.25,4.39-7.31,6.57-9.77,.1,1.06,.25,2.11,.39,3.2,.28,2.07,.53,4.15,.81,6.22-.17-.28-.35-.53-.46-.77l-.07,.04c-1.34,3.02,0,6.15,2.04,8.82Z"/><g><path class="cls-87" d="M801.85,381.18c-.03-.53-.11-1.09-.18-1.62-.88-6.86-4.6-20-4.6-20,0,0-1.65-3.94-3.02-5.91-2.32-1.06-28.09,8.47-30.16,7.03,1.55,1.97,5.06,4.92,5.06,4.92l3.09,2.22,12.09,9.81s9,12.2,11.64,18.98c.11,.25,3.88,4.64,3.99,4.92-.24-5.13,1.6-11.82,2.1-20.35Z"/><path class="cls-105" d="M800.98,377.78l-6.9-14.49-.32-.53-1.16-6.08s-1.66-1.16-2.5-1.62c-1.12-.67-4.22-.84-4.22-.84-.56,1.58-1.16,3.41-1.65,5.27-.04,.17-.11,.39-.14,.6,1.79,1.79,4.15,3.62,6.47,4.68,1.76,5.31,4.64,16.84,4.64,16.84l.48,15.23,3.38,20.75c.03-.91,3.06-32.94,3.06-32.94l-1.15-6.86Z"/><path class="cls-49" d="M762.37,352.6c5.24,7.56,23.13,4.61,23.35-1.23l-1.05-6.25c.73,1.33,6.6,4.91,8.53,7.37,.28,.39,.56,.74,.84,1.16,.14,1.16-.42,3.62-.42,3.62l-1.02-.6-2.5-1.62-4.22-.84c-.56,1.58-2.5,10.12-2.5,10.12h-.07l-12.16-.63s-5.2-1.58-7.28-3.02c-2.04-2.67-3.37-5.8-2.04-8.82l.07-.04c.1,.25,.28,.49,.46,.77Z"/></g><g><path class="cls-9" d="M785.52,346.53c.21,0,.34,7.34,.37,7.69,0,2.45-17.86,8.15-23.86-1.16-.28-2.08-1.2-12.48-1.34-13.5,.56,.03,1.16-.14,1.79-.63,1.65,1.12,21.63,7.81,23.04,7.6Z"/><path class="cls-8" d="M790.8,306.52c-1.79,2.32-7.61,3.67-10.45,4.9-4.01,1.65-14.56,6.73-14.56,6.73,.18,2.29-.25,4.25-.49,6.85-.25,3.02-1.76,5.34-.04,11.53-1.44-.77-2.84-1.55-4.14-2.39-.67-2.42-1.27-4.92-1.76-6.29-1.41-1.09-5.27,.07-3.8,3.23,1.16,2.5,2.49,8.22,5.13,8.47,.56,.03,1.16-.14,1.8-.63,.7,1.65,4.72,4.25,4.72,4.25,0,0,16.02,5.13,17.43,4.92,.21,0,7.31-3.52,7.31-3.52l1.18-23.72s-1.99-13.36-2.31-14.35Z"/><path class="cls-59" d="M765.78,318.15c.18,2.29-.25,4.25-.49,6.86-.25,3.02-1.76,5.34-.04,11.53-1.44-.77-2.85-1.55-4.15-2.39-.67-2.43-1.27-4.92-1.76-6.29-1.41-1.09-5.27,.07-3.8,3.23,1.16,2.5,2.5,8.22,5.13,8.47,.14,1.02,.39,3.06,.39,3.06l-2.92-1.02-2.18-3.76c-4.75-6.61-11.55-19.93-11.55-19.93l-1.14-13.01s14.41,11.39,22.5,13.25Z"/><path class="cls-93" d="M768.91,318.51s-2.78-.25-3.13-.35c-8.09-1.86-15.82-8.19-22.5-13.25,1.44-3.27,6.57-8.82,6.57-8.82,2.46-2.28,17.33-6.93,21.65-6.5h.03c1.9,.32,8.44,1.65,9.74,1.79-.68-.05,11.23,.81,11.49,.84,0,0,2.53,7.35,.63,11.11-.56,1.09-3.27,5.38-3.27,5.38,0,0-16.49,9.7-21.23,9.81Z"/></g></g><g><path class="cls-1" d="M1185.08,657.74v-89.41c0-4.12,2.38-7.92,6.23-9.98h0l12.18,6.5v103.54h0c-3.23,1.72-7.2,1.72-10.43,0l-2-1.07c-3.7-1.98-5.98-5.63-5.98-9.58Z"/><g><path class="cls-105" d="M1137.88,532.26l13.43-7.16c.44-.29,.9-.53,1.39-.74h.02s0,0,0,0c2.29-.96,5.04-.98,7.53,.34l48.12,25.69c7.61,4.06,12.3,11.57,12.3,19.7v14.03c0,3.34-2.22,5.97-5.14,7.08h0l-12.39,6.69-20.93-21.05-22.07-11.78c-7.61-4.06-12.3-11.57-12.3-19.7v-3.09l-9.95-10.01Z"/><path class="cls-27" d="M1194.24,598.26l-48.12-25.69c-7.61-4.06-12.3-11.57-12.3-19.7v-14.03c0-5.89,6.9-9.57,12.41-6.63l48.12,25.69c7.61,4.06,12.3,11.57,12.3,19.7v14.03c0,5.89-6.9,9.57-12.41,6.63Z"/></g><path class="cls-93" d="M1134.8,515.57l34.02,14.04,16.87,30.19,9.42,88.03-20.32-2.44-68.59-6.95-2.28-25.37s-1.57-7.27-5.74-16.29c-4.74-10.43-16.67-33.75-16.67-33.75l-5.02-35.84,13.29-12.12,45.01,.5Z"/><path class="cls-45" d="M1227.75,637.05c-2.04,8.48,24.85-66.72,24.85-66.72l35.43,8.23-41.47,77.72-33.66,20.69-13.55-14.39s28.64-26.54,28.4-25.52Z"/><path class="cls-1" d="M1306.8,722.68v-89.41c0-4.12,2.38-7.92,6.23-9.98h0l12.18,6.5v103.54h0c-3.23,1.72-7.2,1.72-10.43,0l-2-1.07c-3.7-1.98-5.98-5.63-5.98-9.58Z"/><g><path class="cls-105" d="M1259.59,597.2l13.43-7.16c.44-.29,.9-.53,1.39-.74h.02s0,0,0,0c2.29-.96,5.04-.98,7.53,.34l48.12,25.69c7.61,4.06,12.3,11.57,12.3,19.7v14.03c0,3.34-2.22,5.97-5.14,7.08h0l-12.39,6.69-20.93-21.05-22.07-11.78c-7.61-4.06-12.3-11.57-12.3-19.7v-3.09l-9.95-10.01Z"/><path class="cls-27" d="M1315.95,663.2l-48.12-25.69c-7.61-4.06-12.3-11.57-12.3-19.7v-14.03c0-5.89,6.9-9.57,12.41-6.63l48.12,25.69c7.61,4.06,12.3,11.57,12.3,19.7v14.03c0,5.89-6.9,9.57-12.41,6.63Z"/></g><path class="cls-93" d="M1315.41,729.12s.89-53.55,2.23-70.85c1.34-17.3,5.35-51.9,0-62.2-5.35-10.3-19.6-16.07-30.29-21.01-10.69-4.94-31.18-12.77-35.64-3.3-4.46,9.47-16.48,114.61-16.48,114.61l80.19,42.75Z"/><path class="cls-6" d="M1296.92,579.5s-10.47,10.51-13.81,17.24c-3.34,6.74-20.27,44.43-20.27,44.43,0,0-2.9-42.22-2.23-48.82,.67-6.59,3.79-18.74,3.79-18.74l32.52,5.89Z"/><polygon class="cls-101" points="1296.92 547.86 1296.92 579.5 1285.34 588.23 1271.31 590.29 1265.74 580.61 1265.74 569.08 1296.92 547.86"/><path class="cls-6" d="M1263.03,593.72l-.68-11.37c1.01-4.69,2.04-8.74,2.04-8.74l6.9,16.68-8.27,3.43Z"/><path class="cls-6" d="M1276.47,599.08l-5.16-8.79,25.62-10.8s-7.44,7.47-11.78,13.86l-8.68,5.73Z"/><path class="cls-101" d="M1250.15,527.58v31.51c0,3.09,11.03,16.99,11.03,16.99l10.64,2.94,19.62-13.3,2.14-8.57s5.85,.31,7.69-5.41c1.84-5.72-.17-8.19-2.84-8.65-2.67-.46-23.55-15.52-23.55-15.52,0,0-25.52-.42-24.73,0Z"/><path class="cls-93" d="M1299.68,543.71s-4.51-1.79-5.19,1.46c-.56,2.67-.88,10.24-.88,10.24l-4.17,2.7v-10.58s-3.68-.62-6.52-3.09c-2.84-2.47-3.67-8.03-3.67-8.03h-16.87l-16.37-6.18,4.96-22.24,34.84-.46,16.21,18.23-.62,19.31-1.71-1.35Z"/><polygon class="cls-27" points="1275.09 596.74 1271.31 601.21 1274.08 616.28 1262.36 643.23 1261.2 614.19 1266.83 600.39 1264.76 593.01 1271.31 590.29 1275.09 596.74"/><path class="cls-45" d="M1062.7,580.94c-2.04,8.48,13.96-51.63,13.96-51.63l46.32-6.87-41.47,77.72-33.66,20.69-13.55-14.39s28.64-26.54,28.4-25.52Z"/><path class="cls-93" d="M1025.08,729.97l8.35-8.15,.06,.05s23.13-.34,28.98,6.02c-.6,2.71-2.08,10.3-2.45,11.84-.75,.43-21.02,7.78-22.55,8.5-1.22,.64-16.77,6.77-16.77,6.77l-10.93-10.05,1.44-5.77,13.87-9.21Z"/><path class="cls-93" d="M1120.72,771.37s.03-.13,.06-.17c.85-2.37,26.95-11.06,32.68-6.58,.05,.11,1.65,5.94,1.97,7.57-1.12,1.5-3.07,3.83-5.52,6.63-.81-1.18-2.59-.36-3.54,.61-1.51,1.53-1.59,3.4-1.73,5.24-7.4,7.98-20.6,19.29-20.6,19.29v-.04c-2.72,.54-15.2-5-15.2-5l-1.15-6.31,9.56-11.68s3.01-8.14,3.47-9.55Z"/><path class="cls-93" d="M1118.7,623.04c0-.32,71.38,9.34,72.03,8.86,.49,2.49,1.87,16.57,2.27,19,.3,3.45,.81,10.86,.81,10.86l-38.74,50.33-7.17,85.81-17.35,13.24-24.64-7.42,5.35-96.01,20.16-39.88-47.41,26.68-30.53,72.3-26.89-6.81-9.53-3.42,30.47-84.23s71.26-47.74,71.17-49.3Z"/><g><path class="cls-49" d="M1128.85,528.16c-.7,2.81-2.94,7.6-2.94,7.6l-2.14,3.82-7.87,16.13s-3.76,17.12-3.48,25.49c0,.31-1.89,6.73-1.87,7.08-1.96-5.48-6.67-11.57-10.82-20.24-.19-.57-.36-1.19-.52-1.77-2.06-7.59-3.98-23.14-3.98-23.14,0,0-.04-4.92,.49-7.64,1.86-2.23,31.67-4.81,33.12-7.33Z"/><path class="cls-105" d="M1100.26,535.04c.84-1.24,3.85-2.93,3.85-2.93,1.24,1.38,2.62,3,3.91,4.71,.11,.16,.27,.35,.4,.55-1.02,2.74-2.59,5.8-4.45,8.03,.52,6.4,6.05,19.45,6.05,19.45l2.58,16.55,2.1,12.54c-.43-.94-13.76-22.15-13.76-22.15l-1.79-7.73,.68-18.49,.09-.71-1.45-6.92s1.16-2.02,1.8-2.9Z"/><path class="cls-6" d="M1101.43,522.01l1.63,7.04c2.72,5.99,21.84,.37,23.83-10.08,.05-.38,.13-.72,.12-1.03h.09c2.63,2.51,2.64,6.43,1.75,10.21-1.45,2.52-5.97,6.7-5.97,6.7l-11.87,6.58-.07,.03s-5.59-7.98-6.83-9.36l-3.85,2.93-1.8,2.9-.76,1.12s-1.62-2.3-1.97-3.58c.1-.58,.23-1.08,.35-1.62,.88-3.51,5.2-10.1,5.36-11.85Z"/></g><path class="cls-59" d="M1088.37,535.9s4.37-9.67,5.65-11.26c2.07,.53,4.78,.67,6.74,.51-2.29,1.6-3.73,4.86-4.61,8.37-.11,.54-.25,1.04-.35,1.62-.52,2.72-.64,5.51-.49,7.64,.42,7.99,1.91,15.55,3.97,23.14,.16,.59,.52,1.77,.52,1.77l10.66,16.84,2.95,6.04,3.06,10.48-27.85-42.45-2.41-11.43,4.95-3.01-2.8-8.26Z"/><path class="cls-59" d="M1123.77,539.59c.72-1.23,1.4-2.54,2.14-3.82,1.05-2.05,2.24-4.79,2.94-7.6,.89-3.78,.88-7.7-1.75-10.21h-.09c0,.31-.07,.65-.12,1.03-.61-2.3-1.25-4.59-1.86-6.89-.33-1.21-.64-2.38-.99-3.53,3.23,1.51,10.4,6.87,10.75,7.01,2.99,4.01,2.59,18.74,2.59,18.74l-.29,9.35-6.49,1.93,3.35,7.63-12.18,15-5.31,32.83-6.58-17.58,6.01-27.76s4.81-10.85,7.87-16.13Z"/><g><path class="cls-9" d="M1120.93,504.75c.84,.21,1.51,.1,2.06-.21,.3,1.13,3.84,12.45,4.45,14.76-2,12.65-22.28,15.38-23.33,12.82-.12-.38-3.14-8.12-2.93-8.22,1.49-.46,18.58-17.17,19.74-19.15Z"/><path class="cls-8" d="M1100.79,483.4c4.58,1.11,16.73,4.86,16.73,4.86,.07,2.6,16.38,5.28,15.13,9.1-.98,3.02-4.2,13.24-7.06,14-.61,.14-1.29,.06-2.04-.38-.57,1.99-4.67,5.65-4.67,5.65,0,0-16.95,8.73-18.51,8.75-.23,.04-8.42-2.59-8.42-2.59l-4.05-26.42s.62-15.37,.86-16.55c2.23,2.28,8.76,2.72,12.02,3.57Z"/><path class="cls-59" d="M1140.61,469.22l.27,14.82s-5.9,16.22-10.33,24.52l-1.95,4.63-1.16,2.55s-1.89-3.2-1.85-4.37c2.86-.77,3.65-7.45,4.63-10.47,1.25-3.83-3.12-4.41-4.53-2.93l-2.7,6.56-4.05,2.35-.32-8.43,1.91-5.62-3.02-4.56c8.64-3.59,23.09-19.05,23.09-19.05Z"/><path class="cls-93" d="M1097.42,461.05c1.41-.4,8.41-3.11,10.45-3.82h.04c4.69-1.28,21.51,1.18,24.47,3.29,0,0,6.27,5.29,8.23,8.69-6.73,6.92-14.46,15.46-23.09,19.05-.37,.18-3.38,.97-3.38,.97-5.21,.76-24.39-7.09-24.39-7.09,0,0-3.46-4.31-4.21-5.44-2.52-3.87-.6-12.6-.6-12.6,.28-.08,13.22-3.25,12.49-3.07Z"/></g><polygon class="cls-40" points="993.27 709.4 1060.18 738.67 1186.29 676.13 1336.46 748.93 1218.94 807.15 1411.01 898.03 1237.76 984.01 829.85 790.44 993.27 709.4"/><g><path class="cls-93" d="M1357.05,758.4l.16,133c0,1.5-1.05,2.98-3.16,4.14-4.18,2.25-10.94,2.25-15.09,0-2.06-1.13-3.11-2.6-3.11-4.08l-.18-133c0,1.48,21.37,1.44,21.37-.06Z"/><path class="cls-93" d="M1207.87,800.4c6.73,3.66,18.29,1.01,18.25-4.13l.17,166.93c.03,5.13-11.52,7.81-18.26,4.12-2.05-1.12-3.1-2.58-3.1-4.05l-.18-166.94c0,1.47,1.04,2.95,3.11,4.08Z"/><path class="cls-93" d="M859.42,660.69l.17,133c.03,5.13-11.52,7.81-18.26,4.12-2.05-1.12-3.1-2.58-3.1-4.05l-.18-133.01c0,1.47,21.4,5.09,21.36-.05Z"/><path class="cls-93" d="M964.49,591.29l.16,133c0,1.5-1.05,2.98-3.16,4.14-4.18,2.25-10.94,2.25-15.09,0-2.06-1.13-3.11-2.6-3.11-4.08l-.18-133c0,1.48,21.37,1.44,21.37-.06Z"/><g class="cls-24"><polygon class="cls-6" points="1411.15 774.88 1247.73 855.92 806.16 637.7 969.58 556.65 1411.15 774.88"/><polygon class="cls-53" points="1247.73 855.92 1247.72 862.81 806.14 644.57 806.16 637.7 1247.73 855.92"/><polygon class="cls-21" points="1411.15 774.58 1411.12 781.46 1247.72 862.51 1247.73 855.62 1411.15 774.58"/></g></g><path class="cls-8" d="M1027,624.12s.07,.04,.1,.06c1.44,2.03,2.15,4.24,2.15,4.24l-2.11,4.55-8.31,1.45-12.01,8.73-6.4-3.67-.53-1.4-1.06-12.65,10.02-4.84s13.97,.72,18.15,3.52Z"/><g><path class="cls-19" d="M1089.42,669.75l9.75-2.71c2.25,.15,10.12,6.62,11.56,7.37,.02,5.46-10.51,5.18-11.56,10.92-1.38,.83-2.93,1.77-4.71,2.62-.15,.05-.34,.11-.48,.2-1.94,.86-25.95,3.67-25.95,3.67l-3.62-11.69,15.81-11.68,9.21,1.29Z"/><path class="cls-6" d="M1115.88,677.77c0,1.3-4.93,4.91-4.93,4.91l-11.5-10.19-5.76-5.52,4.49-5.47,17.71,16.27Z"/><polygon class="cls-59" points="1144.37 556.32 1152.6 539.52 1168.74 536.58 1179.11 552.17 1165.6 631.2 1115.79 681.71 1096.52 663.21 1135.01 622.29 1144.37 556.32"/><polygon class="cls-6" points="1035.28 630.65 1030.78 634.17 1015.98 621.34 1021.07 617.55 1035.28 630.65"/><polygon class="cls-45" points="1081.52 600.16 1036.74 631.76 1018.52 617.62 1062.7 580.94 1081.52 600.16"/></g><path class="cls-8" d="M1201.15,673.15s.07,.04,.1,.06c1.44,2.03,2.15,4.24,2.15,4.24l-2.11,4.55-8.31,1.45-12.01,8.73-6.4-3.67-.53-1.4-1.06-12.65,10.02-4.84s13.97,.72,18.15,3.52Z"/><polygon class="cls-6" points="1209.43 679.68 1204.94 683.2 1190.14 670.37 1195.23 666.58 1209.43 679.68"/><polygon class="cls-45" points="1253.18 649.91 1208.4 681.51 1190.17 667.37 1234.36 630.69 1253.18 649.91"/><path class="cls-48" d="M898.18,572.75c1.26-4.9,.23-12.62-3.61-16.16-1.56-1.79-3.1-3.61-5.03-5.26-4.41-4.15-8.3-5.7-14.65-7.27-9.15-2.33-21.58-2.84-28.23,4.94-1.45,.08,25.54,1.59,35.4,9.36,2.09,1.67,.98,4.54,3.13,6.59,2.51,2.39,2,4.81,4.69,6.21,.8,.08,7.51,1.38,8.29,1.59Z"/><path class="cls-19" d="M1241.56,723.46l9.75-2.71c2.25,.15,10.12,6.63,11.56,7.37,.02,5.46-10.51,5.18-11.56,10.92-1.38,.83-2.93,1.77-4.71,2.62-.15,.05-.34,.11-.48,.2-1.94,.86-25.95,3.67-25.95,3.67l-3.62-11.69,15.81-11.68,9.21,1.29Z"/><path class="cls-6" d="M1268.02,731.49c0,1.3-4.93,4.91-4.93,4.91l-11.5-10.19-5.76-5.52,4.49-5.47,17.71,16.27Z"/><path class="cls-59" d="M1297.5,608.03l4.11-8.39c1.97-4.02,5.73-6.87,10.14-7.67h0c5.54-1.01,11.16,1.37,14.28,6.07l2.12,3.19c1.99,3,2.76,6.64,2.16,10.19l-12.56,73.51-49.81,50.51-19.28-18.5,38.49-40.92,9.05-63.75c.21-1.47,.65-2.89,1.3-4.22Z"/><path class="cls-32" d="M1139.28,896.32l-17.63-2.28-24.76,3.55-2.94,13.51,5.43,18.01,9.99,1.27,29.66-11.02s18.18-9.04,19.45-13.17c1.3-4.2-19.21-9.88-19.21-9.88Z"/><path class="cls-32" d="M1000.62,823.19l22.41-10.4,47.4-19.16c11.9-5.62,39.77,9.87,41.15,16.96l19.11,88.36-22.18,12.47-14.33-3.26-14.67-67.21s-52.57,19.09-67.85,17.62c-27.28-2.59-11.04-35.38-11.04-35.38Z"/><g><g><g><path class="cls-93" d="M1088.35,973.16l.02,.04c1.35-.66,3.05-.58,4.92,.5,4.37,2.53,7.92,9.3,7.92,15.13,0,3.33-1.16,6.74-2.96,7.63l-12.34,6.15-10.35-21.94,12.79-7.51Z"/><path class="cls-59" d="M1072.89,987.03c0,5.83,3.55,12.61,7.92,15.13,4.38,2.53,7.92-.15,7.92-5.99s-3.55-12.61-7.92-15.13c-4.37-2.53-7.92,.15-7.92,5.99Z"/><path class="cls-93" d="M1077.78,989.86c0,2.23,1.35,4.82,3.03,5.78,1.67,.97,3.03-.06,3.03-2.29s-1.36-4.82-3.03-5.79c-1.67-.97-3.03,.06-3.03,2.29Z"/></g><g><path class="cls-93" d="M1002.15,973.16l-.02,.04c-1.36-.66-3.05-.58-4.92,.5-4.38,2.53-7.92,9.3-7.92,15.13,0,3.33,.69,6.54,2.49,7.43l12.81,6.35,10.35-21.94-12.8-7.51Z"/><path class="cls-59" d="M1017.62,987.03c0,5.83-3.55,12.61-7.92,15.13-4.37,2.53-7.92-.15-7.92-5.99s3.55-12.61,7.92-15.13c4.38-2.53,7.92,.15,7.92,5.99Z"/><path class="cls-93" d="M1012.73,989.86c0,2.23-1.36,4.82-3.03,5.78-1.67,.97-3.03-.06-3.03-2.29s1.35-4.82,3.03-5.79c1.67-.97,3.03,.06,3.03,2.29Z"/></g><g><path class="cls-93" d="M1074.4,930.16l-.02,.04c-1.2-.59-2.71-.52-4.37,.44-3.89,2.24-7.04,8.26-7.04,13.44,0,2.95,.93,5.88,2.52,6.68l11.07,5.56,9.19-19.48-11.36-6.67Z"/><path class="cls-59" d="M1088.14,942.47c0,5.18-3.15,11.2-7.03,13.44-3.88,2.24-7.04-.14-7.04-5.32s3.15-11.2,7.04-13.44c3.88-2.24,7.03,.14,7.03,5.32Z"/><path class="cls-93" d="M1083.79,944.98c0,1.98-1.2,4.28-2.69,5.14-1.49,.86-2.69-.05-2.69-2.03s1.2-4.28,2.69-5.14c1.48-.86,2.69,.05,2.69,2.03Z"/></g><g><path class="cls-93" d="M1013.88,930.16l.02,.04c1.2-.59,2.71-.52,4.37,.44,3.88,2.24,7.03,8.26,7.03,13.44,0,2.95-.94,5.93-2.54,6.73l-11.05,5.5-9.19-19.48,11.36-6.67Z"/><path class="cls-59" d="M1000.15,942.47c0,5.18,3.15,11.2,7.03,13.44,3.89,2.24,7.03-.14,7.03-5.32s-3.15-11.2-7.03-13.44c-3.89-2.24-7.03,.14-7.03,5.32Z"/><path class="cls-93" d="M1004.5,944.98c0,1.98,1.2,4.28,2.69,5.14,1.48,.86,2.69-.05,2.69-2.03s-1.2-4.28-2.69-5.14c-1.48-.86-2.69,.05-2.69,2.03Z"/></g></g><g><polygon class="cls-1" points="1088 930.3 1086.45 936.71 1060.48 953.48 1056.74 945.55 1088 930.3"/><polygon class="cls-56" points="1044.45 943.29 1051.34 934.71 1077.5 925.16 1088 930.3 1056.65 946.24 1044.45 943.29"/><polygon class="cls-1" points="1000.99 930.3 1002.53 936.71 1028.5 953.48 1032.24 945.55 1000.99 930.3"/><polygon class="cls-56" points="1044.54 943.29 1037.35 934.71 1011.95 924.97 1000.99 930.3 1032.34 946.24 1044.54 943.29"/><polygon class="cls-1" points="1102.01 978.6 1099.13 985.1 1087.05 991.21 1044.54 963.29 1044.54 949.95 1102.01 978.6"/><polygon class="cls-56" points="1055.29 943.29 1102.01 978.6 1088.84 985.18 1044.54 954.98 1044.54 943.29 1055.29 943.29"/><polygon class="cls-1" points="988.76 979.45 992.1 986.27 1002.02 991.21 1044.54 963.29 1044.54 949.95 988.76 979.45"/><polygon class="cls-56" points="1033.78 943.29 988.76 979.45 1000.23 985.18 1044.54 954.98 1044.54 943.29 1033.78 943.29"/><path class="cls-56" d="M1044.54,954.37h0c6.74,0,12.2-5.14,12.2-11.49v-53.81h-24.4v53.81c0,6.34,5.46,11.49,12.2,11.49Z"/></g><g><path class="cls-27" d="M994.58,852.65l42.15-24.33c5.04-2.91,11.24-2.91,16.27,0l37.84,21.85,19.36,3.52v16.87c0,3.43-1.7,6.86-5.09,8.82l-58.12,28.9c-5.04,2.91-11.24,2.91-16.27,0l-52.95-26.24c-3.4-1.96-5.09-5.39-5.09-8.82v-16.87l21.91-3.7Z"/><path class="cls-105" d="M1105.11,844.92l-52.11-33.47c-5.04-2.91-11.24-2.91-16.27,0l-58.97,36.17c-6.79,3.92-6.79,13.73,0,17.65l52.95,26.15c5.04,2.91,11.24,2.91,16.27,0l58.12-28.85c6.79-3.92,6.79-13.73,0-17.65Z"/></g></g><path class="cls-32" d="M1000.62,823.19l22.41-10.4,47.4-19.16,31.2-.82,9.96,17.78-32.08,30.36s-52.57,19.09-67.85,17.62c-27.28-2.59-11.04-35.38-11.04-35.38Z"/><polygon class="cls-32" points="1225.43 926.34 1215.28 920.15 1193.82 920.9 1183.19 916.74 1157.6 918.29 1153.46 931.84 1154.75 943.12 1157.51 950.71 1169.03 955.84 1226.56 936.31 1225.43 926.34"/><path class="cls-48" d="M1131.39,826.62l20.91,10.41c9.56,20.78,33.79,84,33.79,84,0,0-5.99,11.41-6.03,11.73l-16.61,5.75-11.59-4.09-34.47-91.84,14.01-15.96Z"/><polygon class="cls-48" points="995.88 865.12 983.43 829.04 989.91 779.03 1039.92 804.99 1056.16 829.68 1133.75 816.24 1146.42 824.83 1152.66 837.82 1143.17 856.31 1125.01 862.34 1120.9 856.25 1050.44 874.85 1025.3 877.07 995.88 865.12"/><path class="cls-93" d="M1077.43,756.86l-24.97,8.65-9.76,3.38-23.89-26.61c-6.83-9.42-29.89-16.69-29.89-20.92,0-22.52,16.38-26.61,16.38-26.61l39.86,43.39,1.47,1.6,20.1-3.75,10.7,20.86Z"/><path class="cls-19" d="M1047.73,625.27l19.33,1.99-7.13,49.71-12.28,15.83s-18.72-6.19-23.57-9.51c-9.41-6.39-8.14-23.13-8.14-24.5l-1.03-33.57,32.82,.05Z"/><path class="cls-19" d="M1006,698.74l10.56-33.95,25.21,5.36-8.67,36.15c.09,4.13,22.42,32.41,22.67,45.26l-47.74-14.36c-.1-5.47-2.03-38.46-2.03-38.46Z"/><path class="cls-93" d="M1056.65,716.31c4.35,6.66,.42,48.15,.42,48.15l.91,50.78c.07,3.51-2.2,31.6-2.2,31.6l-39.18,12.74-36.47-25.36-2.87-103.25,3.62-27.65,18.43-13.62,26.01,8.26s25.53,9.47,31.34,18.34Z"/><g><g><path class="cls-105" d="M964.04,747.5l20.65-9.93c2.58-1.17,5.7-1.2,8.5,.42l50.89,26.9c8.6,4.96,13.89,14.13,13.89,24.06v17.14c0,4.08-2.4,8.33-5.7,9.69l-14.1,7.13-23.64-25.71-24.93-14.39c-8.6-4.96-13.89-14.13-13.89-24.06v-3.77l-11.67-7.47Z"/><path class="cls-27" d="M1028.13,823.36l-54.35-26.91c-8.6-4.96-13.89-14.13-13.89-24.06v-17.14c0-7.19,7.79-11.69,14.02-8.09l54.35,26.92c8.59,4.96,13.89,14.13,13.89,24.06v17.14c0,7.19-7.79,11.69-14.02,8.09Z"/></g><path class="cls-56" d="M982.61,879.51v-109.21c0-5.03,2.06-8.6,6.42-11.12l14.38,6.86v128.48s-8.14,.09-11.78-2.01l-2.26-1.3c-4.18-2.41-6.76-6.88-6.76-11.71Z"/></g><g><g><g class="cls-24"><polygon class="cls-25" points="1337.24 780.29 1337.23 781.65 1284.31 808.14 1284.32 806.78 1337.24 780.29"/><polygon class="cls-92" points="1284.32 806.78 1284.31 808.14 1248.29 790.16 1248.3 788.81 1284.32 806.78"/><polygon class="cls-1" points="1337.24 780.29 1284.32 806.78 1248.3 788.81 1301.22 762.32 1337.24 780.29"/></g><g class="cls-24"><polygon class="cls-36" points="1334.03 775.42 1334.01 780.76 1284.3 805.64 1284.32 800.31 1334.03 775.42"/><polygon class="cls-42" points="1284.3 805.64 1251.14 789.11 1251.14 783.77 1284.32 800.31 1284.3 805.64"/></g><g class="cls-24"><polygon class="cls-25" points="1337.24 772.47 1337.23 773.82 1284.31 800.31 1284.32 798.96 1337.24 772.47"/><polygon class="cls-92" points="1284.32 798.96 1284.31 800.31 1248.29 782.34 1248.3 780.98 1284.32 798.96"/><polygon class="cls-1" points="1337.24 772.47 1284.32 798.96 1248.3 780.98 1301.22 754.49 1337.24 772.47"/></g></g><g><g class="cls-24"><polygon class="cls-97" points="1327.42 769.36 1327.41 770.54 1281.32 793.61 1281.33 792.43 1327.42 769.36"/><polygon class="cls-62" points="1281.33 792.43 1281.32 793.61 1249.95 777.95 1249.96 776.77 1281.33 792.43"/><polygon class="cls-96" points="1327.42 769.36 1281.33 792.43 1249.96 776.77 1296.05 753.7 1327.42 769.36"/></g><polygon class="cls-36" points="1324.62 765.12 1324.61 769.77 1281.32 791.44 1281.33 786.79 1324.62 765.12"/><polygon class="cls-42" points="1281.32 791.44 1252.43 777.04 1252.43 772.38 1281.33 786.79 1281.32 791.44"/><g class="cls-24"><polygon class="cls-97" points="1327.42 762.54 1327.41 763.72 1281.32 786.79 1281.33 785.61 1327.42 762.54"/><polygon class="cls-62" points="1281.33 785.61 1281.32 786.79 1249.95 771.14 1249.96 769.96 1281.33 785.61"/><polygon class="cls-96" points="1327.42 762.54 1281.33 785.61 1249.96 769.96 1296.05 746.89 1327.42 762.54"/></g></g></g><g><g><polygon class="cls-96" points="1240.14 753.41 1245.43 804.31 1207.27 817.56 1207.41 769.69 1240.14 753.41"/><polygon class="cls-6" points="1246.82 756.94 1214.94 772.79 1207.81 769.95 1239.48 754.01 1246.82 756.94"/><polygon class="cls-42" points="1248.43 756.87 1248.29 805.78 1215.56 822.11 1215.69 773.15 1248.43 756.87"/><polygon class="cls-91" points="1240.14 753.41 1208.42 769.19 1215.89 772.29 1247.57 756.47 1248.43 756.87 1215.7 773.15 1206.66 769.3 1239.29 753.01 1240.14 753.41"/><polygon class="cls-96" points="1215.69 773.15 1215.56 822.11 1206.52 817.56 1206.66 769.3 1215.69 773.15"/><path class="cls-33" d="M1210.72,812.95c1.34,.67,2.42,2.29,2.42,3.62s-1.08,1.88-2.42,1.21c-1.34-.67-2.42-2.29-2.42-3.62s1.08-1.88,2.42-1.21Z"/><polygon class="cls-2" points="1213.31 775.85 1213.26 811.53 1208.56 809.46 1208.61 773.78 1213.31 775.85"/></g><g><g><polygon class="cls-1" points="1254.48 763.83 1264.64 813.39 1221.62 825.29 1221.75 780.12 1254.48 763.83"/><polygon class="cls-79" points="1266.02 769.7 1234.36 785.64 1222.36 780.35 1254.03 764.41 1266.02 769.7"/><polygon class="cls-22" points="1267.63 769.74 1267.49 814.86 1234.76 831.19 1234.9 786.02 1267.63 769.74"/><polygon class="cls-110" points="1254.48 763.83 1222.76 779.62 1235.11 785.15 1266.78 769.34 1267.63 769.74 1234.9 786.02 1234.45 785.79 1221 779.73 1253.63 763.44 1254.48 763.83"/></g><polygon class="cls-1" points="1234.9 786.02 1234.76 831.19 1220.87 824.9 1221 779.73 1234.9 786.02"/><path class="cls-22" d="M1227.85,815.52c2.15,1.07,3.89,3.68,3.89,5.82s-1.74,3.01-3.89,1.94c-2.15-1.07-3.89-3.68-3.89-5.82s1.74-3.01,3.89-1.94Z"/><polygon class="cls-41" points="1231.28 792.8 1231.21 813.24 1223.66 809.91 1223.74 789.47 1231.28 792.8"/></g><g><polygon class="cls-25" points="1270.91 772.1 1276.2 819.22 1238.04 833.56 1238.18 788.39 1270.91 772.1"/><polygon class="cls-79" points="1277.67 775.67 1245.71 791.49 1238.58 788.64 1270.24 772.7 1277.67 775.67"/><polygon class="cls-92" points="1279.19 775.56 1279.06 820.69 1246.33 837.02 1246.46 791.85 1279.19 775.56"/><polygon class="cls-25" points="1274.98 783.44 1274.88 811.22 1250.54 823.37 1250.64 795.55 1274.98 783.44"/><polygon class="cls-1" points="1270.91 772.1 1239.19 787.89 1246.66 790.98 1278.34 775.17 1279.19 775.56 1246.46 791.85 1246.01 791.61 1245.99 791.63 1237.43 788 1270.05 771.71 1270.91 772.1"/><polygon class="cls-25" points="1246.46 791.85 1246.33 837.02 1237.29 833.17 1237.43 788 1246.46 791.85"/></g></g><g><path class="cls-51" d="M993.41,578.81l.07,26.21c0,1.85,1.22,3.7,3.66,5.1,4.89,2.85,12.83,2.85,17.75,0,2.47-1.42,3.71-3.3,3.7-5.17l-.07-26.2c.01,1.87-1.23,3.74-3.71,5.17-4.91,2.84-12.87,2.84-17.75,0-2.43-1.41-3.64-3.26-3.64-5.11h0Z"/><path class="cls-105" d="M997.12,573.63c-4.92,2.85-4.95,7.44-.06,10.29,4.89,2.84,12.84,2.84,17.75,0,4.92-2.84,4.94-7.44,.06-10.29-4.88-2.83-12.83-2.83-17.75,0Z"/><path class="cls-38" d="M997.83,574.12c-4.53,2.47-4.56,6.47-.06,8.94,4.49,2.47,11.82,2.47,16.35,0,4.52-2.47,4.54-6.48,.04-8.94-4.49-2.48-11.81-2.48-16.33,0Z"/><path class="cls-105" d="M989.39,601.66l4.64-2.67s.46,.35,1.73,1.09c1,.58,1.49,.78,1.49,.78l-4.62,2.68c-.3,.17-.56,.2-.76,.08l-3.23-1.89c.19,.12,.45,.1,.75-.07Z"/><path class="cls-105" d="M988.94,589.06l5.06-2.91s.51,.55,1.49,1.1c.94,.53,1.74,.77,1.74,.77l-5.05,2.92c-1.17,.67-2.12,2.32-2.11,3.66l.02,9.66c0,.67,.23,1.13,.62,1.36l-3.24-1.89c-.38-.21-.61-.68-.62-1.36l-.03-9.66c0-1.33,.94-2.97,2.11-3.65Z"/><path class="cls-51" d="M992.18,590.94c-1.17,.67-2.12,2.32-2.11,3.66l.02,9.66c0,1.34,.96,1.88,2.13,1.22l5.03-2.92v-1.7l-4.62,2.68c-.58,.33-1.07,.07-1.07-.61l-.02-8.71c0-.67,.47-1.49,1.06-1.83l4.63-2.68v-1.69l-5.05,2.92Z"/><path class="cls-72" d="M997.83,579.03c4.52-2.48,11.85-2.48,16.33,0,1.09,.59,1.9,1.27,2.46,2-.57,.75-1.41,1.44-2.5,2.03-4.53,2.47-11.86,2.47-16.35,0-1.08-.59-1.89-1.28-2.46-2,.57-.73,1.4-1.43,2.51-2.03Z"/><path class="cls-70" d="M997.78,583.06c-.46-.24-.86-.52-1.22-.78,.16-.56,.54-1.16,1.3-1.69,2.57-1.79,6.01-1.99,6.01-1.99,0,0-2.06,.69-2.49,3.35-.14,.96,.29,1.91,.76,2.61-1.6-.3-3.1-.8-4.36-1.5Z"/></g><g><g><path class="cls-30" d="M1177.86,762.12l-72.08-35.97c-1.96-.98-5.15-.98-7.09,0l-41.46,20.82c-1.95,.98-1.94,2.58,.02,3.55l72.08,35.97c1.96,.98,5.15,.98,7.1,0l41.46-20.82c7.68-4.78,1.94-2.57-.02-3.55Z"/><path class="cls-90" d="M1178.91,759.82l-41.46,20.82c-1.95,.98-5.14,.98-7.1,0l-72.08-35.97c-.98-.49-1.48-1.14-1.48-1.79,0,1.18,0,2.37-.01,3.55,0,.65,.49,1.3,1.48,1.79l72.08,35.96c1.96,.98,5.15,.98,7.09,0l41.46-20.82c.97-.48,1.45-1.12,1.45-1.76,0-1.18,0-2.37,.01-3.55,0,.64-.49,1.28-1.45,1.76Z"/><path class="cls-13" d="M1178.87,756.26l-72.08-35.97c-1.96-.98-5.15-.98-7.1,0l-41.46,20.82c-1.95,.98-1.94,2.58,.02,3.55l72.08,35.97c1.96,.98,5.15,.98,7.1,0l41.46-20.82c1.95-.98,1.94-2.57-.02-3.55Z"/><polygon class="cls-3" points="1090 742.65 1089.96 743.23 1099.79 748.11 1124.01 760.15 1124.49 759.91 1124.5 760.4 1133.27 764.75 1133.73 764.51 1133.7 764.97 1145.09 770.81 1149.61 768.53 1149.6 767.31 1150.59 768.03 1160.31 763.12 1160.32 761.57 1161.86 762.34 1166.18 760.15 1166.19 758.96 1167.11 759.68 1171.64 757.32 1171.64 755.74 1166.08 752.97 1165.02 753.51 1165.02 752.45 1159.46 749.68 1158.4 750.22 1158.4 749.16 1152.84 746.39 1151.78 746.99 1151.78 745.87 1146.22 743.1 1145.16 743.75 1145.16 742.58 1139.6 739.82 1138.46 740.56 1138.54 739.29 1132.98 736.53 1131.88 737.3 1131.92 736 1126.36 733.23 1125.3 733.92 1125.3 732.71 1119.74 729.94 1118.66 730.49 1118.68 729.42 1113.11 726.65 1112.16 727.71 1112.07 726.17 1103.99 722.12 1099.48 724.4 1099.48 725.41 1098.47 724.91 1093.96 727.19 1093.96 728.2 1092.95 727.69 1088.44 729.98 1088.44 730.99 1087.43 730.49 1082.93 732.77 1082.93 733.81 1081.89 733.29 1077.38 735.57 1077.44 737 1089.4 742.95 1090 742.65"/><g><polygon class="cls-76" points="1144.09 747.57 1139.58 749.85 1134.02 747.09 1138.53 744.81 1144.09 747.57"/><polygon class="cls-76" points="1149.54 766.91 1145.04 769.19 1133.58 763.49 1138.08 761.21 1149.54 766.91"/><polygon class="cls-76" points="1165.02 752.45 1160.52 754.73 1154.95 751.96 1159.46 749.68 1165.02 752.45"/><polygon class="cls-76" points="1153.22 757.64 1148.71 759.92 1143.15 757.16 1147.65 754.88 1153.22 757.64"/><polygon class="cls-76" points="1146.96 754.53 1142.46 756.82 1136.89 754.05 1141.4 751.77 1146.96 754.53"/><polygon class="cls-76" points="1156.74 753.86 1152.24 756.14 1146.68 753.38 1151.18 751.1 1156.74 753.86"/><polygon class="cls-76" points="1171.64 755.73 1167.13 758.01 1161.57 755.24 1166.08 752.96 1171.64 755.73"/><polygon class="cls-76" points="1140.7 751.43 1136.2 753.71 1130.64 750.94 1135.14 748.66 1140.7 751.43"/><polygon class="cls-76" points="1138.73 755.98 1134.22 758.26 1128.67 755.49 1133.17 753.22 1138.73 755.98"/><polygon class="cls-76" points="1144.99 759.09 1140.48 761.37 1134.92 758.6 1139.43 756.32 1144.99 759.09"/><polygon class="cls-76" points="1132.55 752.9 1128.04 755.18 1122.48 752.42 1126.98 750.14 1132.55 752.9"/><polygon class="cls-76" points="1166.13 758.52 1161.62 760.81 1153.01 756.53 1157.51 754.25 1166.13 758.52"/><polygon class="cls-76" points="1160.31 761.47 1155.09 764.11 1152.09 765.62 1150.58 766.39 1141.2 761.72 1145.71 759.45 1148.59 760.88 1153.82 758.24 1160.31 761.47"/><polygon class="cls-76" points="1137.53 760.94 1133.03 763.22 1124.33 758.9 1128.84 756.62 1137.53 760.94"/><polygon class="cls-76" points="1112.07 726.17 1107.57 728.45 1099.48 724.4 1103.99 722.12 1112.07 726.17"/><polygon class="cls-76" points="1118.77 734.99 1114.26 737.27 1108.7 734.51 1113.21 732.23 1118.77 734.99"/><polygon class="cls-76" points="1145.16 742.58 1140.66 744.86 1135.1 742.1 1139.6 739.82 1145.16 742.58"/><polygon class="cls-76" points="1137.75 744.43 1133.25 746.71 1127.69 743.94 1132.19 741.67 1137.75 744.43"/><polygon class="cls-76" points="1128.28 756.34 1123.77 758.62 1099.34 746.48 1103.84 744.2 1128.28 756.34"/><polygon class="cls-76" points="1118.68 729.42 1114.17 731.7 1108.61 728.93 1113.11 726.65 1118.68 729.42"/><polygon class="cls-76" points="1101.12 737.29 1096.62 739.57 1082.93 732.77 1087.43 730.49 1101.12 737.29"/><polygon class="cls-76" points="1138.54 739.29 1134.04 741.57 1128.47 738.8 1132.98 736.53 1138.54 739.29"/><polygon class="cls-76" points="1115.68 738.99 1111.17 741.27 1105.61 738.51 1110.12 736.23 1115.68 738.99"/><polygon class="cls-76" points="1093.67 739.15 1089.16 741.42 1077.38 735.57 1081.88 733.29 1093.67 739.15"/><polygon class="cls-76" points="1131.54 741.24 1127.03 743.52 1121.47 740.76 1125.98 738.48 1131.54 741.24"/><polygon class="cls-76" points="1107.45 740.43 1102.94 742.71 1097.39 739.95 1101.89 737.67 1107.45 740.43"/><polygon class="cls-76" points="1121.93 742.1 1117.43 744.38 1111.87 741.62 1116.38 739.34 1121.93 742.1"/><polygon class="cls-76" points="1113.64 743.51 1109.13 745.79 1103.57 743.02 1108.08 740.75 1113.64 743.51"/><polygon class="cls-76" points="1151.78 745.87 1147.28 748.15 1141.71 745.38 1146.22 743.1 1151.78 745.87"/><polygon class="cls-76" points="1103.06 743.81 1098.55 746.09 1089.86 741.77 1094.36 739.49 1103.06 743.81"/><polygon class="cls-76" points="1128.19 745.21 1123.68 747.49 1118.13 744.72 1122.63 742.44 1128.19 745.21"/><polygon class="cls-76" points="1119.89 746.62 1115.39 748.9 1109.82 746.13 1114.33 743.85 1119.89 746.62"/><polygon class="cls-76" points="1158.4 749.16 1153.89 751.44 1148.34 748.67 1152.84 746.39 1158.4 749.16"/><polygon class="cls-76" points="1134.45 748.31 1129.94 750.6 1124.38 747.83 1128.89 745.56 1134.45 748.31"/><polygon class="cls-76" points="1150.41 750.72 1145.91 753 1140.35 750.24 1144.85 747.95 1150.41 750.72"/><polygon class="cls-76" points="1126.08 749.69 1121.57 751.97 1116.01 749.21 1120.52 746.93 1126.08 749.69"/><polygon class="cls-76" points="1125.3 732.71 1120.8 734.99 1115.24 732.22 1119.74 729.94 1125.3 732.71"/><polygon class="cls-76" points="1112.16 731.71 1107.66 733.99 1093.96 727.19 1098.47 724.91 1112.16 731.71"/><polygon class="cls-76" points="1103.15 732.76 1098.64 735.04 1088.44 729.98 1092.95 727.69 1103.15 732.76"/><polygon class="cls-76" points="1131.92 736 1127.41 738.28 1121.86 735.51 1126.36 733.23 1131.92 736"/><polygon class="cls-76" points="1109.43 735.88 1104.92 738.16 1099.36 735.4 1103.86 733.12 1109.43 735.88"/><polygon class="cls-76" points="1125.09 738.14 1120.59 740.42 1115.03 737.66 1119.54 735.37 1125.09 738.14"/></g><polygon class="cls-3" points="1108.2 755.28 1096.77 761.02 1079.14 752.22 1090.57 746.48 1108.2 755.28"/><g class="cls-43"><path class="cls-86" d="M1140.07,781.2c0,.48,.39,.67,.86,.43,.48-.24,.86-.82,.86-1.29s-.39-.67-.86-.43c-.48,.24-.86,.82-.86,1.29Z"/><polygon class="cls-86" points="1151.4 776.28 1155.71 774.12 1155.71 772.47 1151.4 774.62 1151.4 776.28"/><polygon class="cls-86" points="1171.5 766.21 1176.98 763.48 1176.98 762.09 1171.5 764.82 1171.5 766.21"/><polygon class="cls-86" points="1144.99 779.46 1149.3 777.31 1149.3 775.65 1144.99 777.81 1144.99 779.46"/></g></g><g><path class="cls-1" d="M1182.97,689.84l-72.08-35.97c-.98-.49-1.88-.54-2.53-.21-1.19,.6-2.37,1.19-3.55,1.78,.65-.33,77.62,101.18,76.98,101.5,.59-.3,1.18-.59,1.78-.89,.59-.3,1.19-.6,1.78-.89,.64-.32,1.04-1,1.04-1.97l.14-58.05c0-1.94-1.59-4.33-3.55-5.31Z"/><path class="cls-20" d="M1169.86,691.95l8.08-4.04,6.99,3.49c.96,1.11,1.6,2.52,1.59,3.74v.21s-4.92,2.46-4.92,2.46l-11.73-5.87Z"/><path class="cls-28" d="M1104.81,655.45c1.19-.59,2.37-1.19,3.56-1.78,.65-.33,1.55-.28,2.53,.21l72.08,35.97c.85,.43,1.62,1.12,2.24,1.93-2.49,1.39-5.1,2.88-5.1,2.88l-73.51-37.13c-1.09-1.36-1.73-2.1-1.78-2.07Z"/><path class="cls-56" d="M1179.42,691.62l-72.08-35.97c-1.96-.98-3.57-.19-3.57,1.76l-.14,58.05c0,1.95,1.59,4.34,3.55,5.32l72.08,35.97c1.96,.98,3.57,.18,3.57-1.76l.14-58.05c0-1.95-1.59-4.33-3.55-5.31Z"/><path class="cls-96" d="M1177.97,694.07l-69.21-34.53c-1.18-.59-2.14-.11-2.14,1.06l-.13,54.55c0,1.17,.95,2.6,2.13,3.18l69.21,34.53c1.17,.58,2.14,.11,2.15-1.05l.12-54.55c0-1.16-.96-2.6-2.13-3.19Z"/><path class="cls-1" d="M1147.2,677.57l-11.3-5.65c-.23-.12-.42-.4-.42-.63h0c0-.23,.19-.33,.42-.21l11.3,5.65c.23,.12,.42,.4,.42,.63h0c0,.23-.19,.33-.42,.21Z"/><polygon class="cls-91" points="1178.14 750.79 1108.15 715.79 1108.21 686.9 1178.2 721.9 1178.14 750.79"/><path class="cls-1" d="M1150.33,678.62c0,.41-.33,.57-.74,.37-.41-.2-.74-.7-.74-1.11s.33-.57,.74-.37c.41,.2,.74,.7,.74,1.11Z"/><polygon class="cls-90" points="1180.16 720.5 1106.54 683.57 1106.59 668.65 1180.16 705.55 1180.16 720.5"/><g><g><polygon class="cls-6" points="1110.24 699.23 1124.75 706.6 1124.75 705.01 1110.24 697.64 1110.24 699.23"/><polygon class="cls-6" points="1110.38 696.86 1124.9 704.23 1124.9 702.64 1110.38 695.27 1110.38 696.86"/><polygon class="cls-6" points="1110.24 702.29 1124.75 709.65 1124.75 708.06 1110.24 700.7 1110.24 702.29"/><polygon class="cls-6" points="1110.24 706.05 1124.75 713.42 1124.75 711.83 1110.24 704.46 1110.24 706.05"/><polygon class="cls-6" points="1110.24 709.11 1124.75 716.47 1124.75 714.88 1110.24 707.52 1110.24 709.11"/><polygon class="cls-6" points="1110.24 712.16 1124.75 719.53 1124.75 717.94 1110.24 710.57 1110.24 712.16"/></g><g><polygon class="cls-6" points="1127.76 708.3 1142.28 715.67 1142.28 714.08 1127.76 706.71 1127.76 708.3"/><polygon class="cls-6" points="1127.91 705.94 1142.43 713.3 1142.43 711.71 1127.91 704.34 1127.91 705.94"/><polygon class="cls-6" points="1127.76 711.36 1142.28 718.73 1142.28 717.13 1127.76 709.77 1127.76 711.36"/><polygon class="cls-6" points="1127.76 715.12 1142.28 722.49 1142.28 720.9 1127.76 713.53 1127.76 715.12"/><polygon class="cls-6" points="1127.76 718.18 1142.28 725.55 1142.28 723.95 1127.76 716.59 1127.76 718.18"/><polygon class="cls-6" points="1127.76 721.23 1142.28 728.6 1142.28 727.01 1127.76 719.64 1127.76 721.23"/></g><g><polygon class="cls-6" points="1145.89 718.64 1160.41 726.01 1160.41 724.42 1145.89 717.05 1145.89 718.64"/><polygon class="cls-6" points="1146.03 716.27 1160.55 723.64 1160.55 722.05 1146.03 714.68 1146.03 716.27"/><polygon class="cls-6" points="1145.89 721.7 1160.41 729.06 1160.41 727.47 1145.89 720.11 1145.89 721.7"/><polygon class="cls-6" points="1145.89 725.46 1160.41 732.83 1160.41 731.24 1145.89 723.87 1145.89 725.46"/><polygon class="cls-6" points="1145.89 728.52 1160.41 735.88 1160.41 734.29 1145.89 726.93 1145.89 728.52"/><polygon class="cls-6" points="1145.89 731.57 1160.41 738.94 1160.41 737.35 1145.89 729.98 1145.89 731.57"/></g><path class="cls-6" d="M1170.31,736.09l-.13-7.95c-.14-.08-.28-.16-.42-.23-3.87-1.88-6.96,.11-6.9,4.44,.06,4.33,3.24,9.36,7.11,11.24,3.87,1.88,6.96-.11,6.9-4.44,0-.06,0-.13-.01-.19l-6.55-2.87Z"/></g><path class="cls-35" d="M1167.72,688.95l-58.96-29.42c-1.18-.59-2.14-.11-2.14,1.06l-.12,36.21,61.22-7.86Z"/></g></g><path class="cls-80" d="M1084.14,740.39l17.43-10.81,18.16-1.86,8.99,3.84-.85,2.46-7.75,4.06v2.87s-.9,.54-6.64,1.51c-4.62,.78-5.37,.69-5.37,.69l-6.62-1.25-12.4,6.36-4.95-7.87Z"/><polygon class="cls-93" points="1102.21 741.55 1100.34 748.92 1077.43 756.86 1066.73 736 1091.65 731.34 1102.21 741.55"/><polygon class="cls-80" points="1121.62 765.32 1133.06 753.23 1153.86 752.72 1157.04 760.33 1152.98 762.52 1140.26 768.6 1128.13 776.21 1121.62 765.32"/><polygon class="cls-48" points="1130.19 768.07 1129.74 778.9 1087.34 805.4 1072.8 800.69 1052.46 765.51 1047.9 757.65 1045.16 738.15 1044.08 730.43 1056.65 716.32 1066.73 736 1077.43 756.86 1086.79 775.15 1122.52 760.36 1130.19 768.07"/><g><g><path class="cls-75" d="M1012.64,660.71l-60.12,30.1c-2.75,1.38-7.27,1.38-10.04,0l-45.25-22.51c-1.39-.69-2.09-1.61-2.09-2.52v3.51c-.01,.91,.68,1.83,2.07,2.52l45.25,22.51c2.77,1.38,7.29,1.38,10.04,0l60.12-30.1c1.37-.68,2.05-1.58,2.05-2.49v-3.51c0,.9-.68,1.8-2.04,2.49Z"/><path class="cls-37" d="M944.56,691.49c-.74-.17-1.46-.38-2.07-.68l-45.25-22.51c-1.39-.69-2.09-1.61-2.09-2.52v3.51c-.01,.91,.68,1.83,2.07,2.52l45.25,22.51c.61,.3,1.33,.51,2.08,.68v-3.52Z"/><path class="cls-85" d="M1012.61,655.7c2.77,1.38,2.78,3.63,.03,5.01l-60.12,30.1c-2.75,1.38-7.27,1.38-10.04,0l-45.25-22.51c-2.77-1.38-2.78-3.63-.03-5.01l60.12-30.1c2.75-1.38,7.27-1.38,10.04,0l45.25,22.51Z"/><g><path class="cls-109" d="M995.45,647.63c.08-.14,.14-.29,.14-.44v-3.41c.01,.38-.27,.75-.82,1.03-.66,.33-1.24,.62-1.63,.82v3.41c.15-.08,.37-.19,.59-.3v3.2s1.54-.78,1.54-.78c.29-.15,.44-.34,.44-.53v-3.41c.01,.14-.1,.28-.26,.4Z"/><path class="cls-79" d="M993.73,648.53l15.81,7.86-49.13,24.6-12.95-6.44-12.87,6.44-33.84-16.83,62-31.04,15.81,7.86-1.59,.8c-.57,.29-.57,.76,0,1.05l13.06,6.5c.58,.29,1.53,.29,2.1,0l1.59-.8Z"/><g><path class="cls-109" d="M995.28,647.94c.58,.29,.58,.76,0,1.05l-1.55,.78-1.59,.8c-.57,.29-1.52,.29-2.1,0l-13.06-6.5c-.25-.13-.43-.45-.43-.45v-1.32s2.01-.07,2.01-.07l1.55-.78c.58-.29,1.53-.29,2.11,0l2.15,1.07c.39-.2,.97-.49,1.63-.82,1.18-.59,4-.93,5.29-.29l3.28,2.4c1.3,.65,1.38,1.66,.2,2.25-.66,.33-1.24,.62-1.63,.82l2.15,1.07Zm-6.19-3.43c.71,.35,1.87,.35,2.57,0,.71-.35,.7-.93,0-1.28-.7-.35-1.86-.35-2.56,0-.71,.35-.7,.93,0,1.28h0Z"/><path class="cls-60" d="M995.28,646.7c.58,.29,.58,.76,0,1.05l-1.55,.78-1.59,.8c-.57,.29-1.52,.29-2.1,0l-13.06-6.5c-.58-.29-.58-.76,0-1.05l1.59-.8,1.55-.78c.58-.29,1.53-.29,2.11,0l2.15,1.07c.39-.2,.97-.49,1.63-.82,1.18-.59,3.21-.55,4.5,.09l4.07,2.02c1.3,.65,1.38,1.66,.2,2.25-.66,.33-1.24,.62-1.63,.82l2.15,1.07Zm-6.19-3.43c.71,.35,1.87,.35,2.57,0,.71-.35,.7-.93,0-1.28-.7-.35-1.86-.35-2.56,0-.71,.35-.7,.93,0,1.28h0Z"/></g><g><polygon class="cls-91" points="994.86 660.78 991.15 662.64 950.3 642.32 954.02 640.46 994.86 660.78"/><polygon class="cls-91" points="980.11 668.16 976.4 670.02 935.56 649.7 939.26 647.85 980.11 668.16"/><polygon class="cls-91" points="972.35 672.05 968.65 673.9 927.8 653.58 931.51 651.73 972.35 672.05"/><polygon class="cls-91" points="964.98 675.73 961.27 677.59 920.43 657.28 924.14 655.42 964.98 675.73"/><polygon class="cls-91" points="987.48 664.47 983.78 666.32 942.94 646.01 946.64 644.15 987.48 664.47"/></g><path class="cls-103" d="M937.89,667.55l.37,4.74s16.6-2.92,17.17-2.37c.57,.55,3.05,2.37,3.05,2.37,0,0-22.81,3.37-22.82,2.74,0-.63-1.07-7.49-1.07-7.49h3.29Z"/><polygon class="cls-91" points="960.41 680.99 934.59 680.99 947.46 674.55 960.41 680.99"/><polygon class="cls-96" points="960.41 680.99 934.59 680.99 900.75 664.16 900.74 667.57 934.58 684.4 960.4 684.4 960.4 684.4 1009.53 659.8 1009.54 656.39 960.41 680.99"/></g></g><g><polygon class="cls-34" points="953.35 643.42 953.36 646.08 955.06 643.5 955.05 640.84 953.35 643.42"/><polygon class="cls-103" points="949.88 641.68 953.35 643.42 955.05 640.84 949.88 641.68"/><polygon class="cls-60" points="949.87 641.68 941.09 646.05 944.57 647.79 953.35 643.42 949.87 641.68"/><polygon class="cls-109" points="944.57 647.79 944.58 650.45 953.36 646.08 953.35 643.42 944.57 647.79"/><polygon class="cls-47" points="920.85 655.64 920.86 658.3 921.34 658.54 921.33 655.88 920.85 655.64"/><g><polygon class="cls-104" points="940.28 645.98 944.71 648.19 944.57 647.79 941.09 646.05 940.28 645.98"/><polygon class="cls-104" points="928.65 656.18 928.66 658.84 944.72 650.85 944.71 648.19 928.65 656.18"/><polygon class="cls-85" points="944.71 648.19 940.28 645.98 924.22 653.96 928.65 656.18 944.71 648.19"/><polygon class="cls-47" points="924.81 657.62 924.81 660.28 925.29 660.52 925.28 657.86 924.81 657.62"/><polygon class="cls-104" points="925.28 657.86 925.29 660.52 927.52 659.41 927.51 656.75 925.28 657.86"/><polygon class="cls-85" points="923.08 654.53 920.85 655.64 921.33 655.88 924.81 657.62 925.28 657.86 927.51 656.75 923.08 654.53"/></g><g><path class="cls-98" d="M923.08,654.53l4.43,2.22,.92,.46,.09,.05c.29,.15,.76,.14,1.05,0l.98-.49,4.74-2.36,.52-.26s.04-.02,.07-.04c.27-.14,.65-.17,1.02-.2,.36-.03,.7-.05,.91-.15,.1-.05,.17-.12,.19-.22,.1-.48-1.42-.55-2.42-.27-.59,.17-1.15,.44-1.18,.46l-.24,.12-4.74,2.36-.36,.18-.4-.2-4.43-2.22-1.14,.57Z"/><path class="cls-73" d="M928.43,657.21l.09,.05c.07,.03,.15,.06,.23,.08,.03,0,.06,0,.09,.01,.06,0,.12,.02,.18,.02,.03,0,.07,0,.1,0,.05,0,.11,0,.16-.02,.04,0,.07-.02,.1-.02,.07-.02,.13-.04,.19-.06l.98-.49,4.74-2.36,.52-.26s.04-.02,.07-.04c.05-.02,.1-.04,.15-.06,0,0,.02,0,.03,0,.11-.03,.23-.06,.36-.08,.03,0,.06,0,.09-.01,.13-.02,.25-.03,.38-.04,.13-.01,.26-.02,.38-.03,.03,0,.05,0,.08,0,.12-.02,.23-.04,.32-.07,.04-.01,.09-.03,.12-.04,.1-.05,.17-.12,.19-.22,0-.02,0-.03,0-.05v2.66s0,.03,0,.04c-.02,.1-.09,.17-.19,.22-.03,.01-.06,.03-.09,.04,0,0-.03,0-.04,0-.09,.03-.2,.05-.32,.06-.03,0-.06,0-.06,0-.15,.02-.27,.03-.4,.04-.13,.01-.26,.02-.39,.04-.03,0-.05,0-.08,0-.13,.02-.25,.05-.36,.08-.06,.02-.13,.04-.18,.07-.02,.01-.04,.02-.07,.04l-.52,.26-4.74,2.36-.98,.49s-.07,.03-.11,.04c-.03,0-.06,.01-.09,.02-.03,0-.07,.02-.1,.02-.05,0-.11,.01-.16,.02-.04,0-.07,0-.1,0-.06,0-.12,0-.17-.02-.03,0-.06,0-.09-.01-.09-.02-.16-.04-.23-.08l-.09-.05-.92-.46v-2.66s.91,.46,.91,.46Z"/></g><g><polygon class="cls-100" points="920.43 656.33 920.43 658.99 923.91 660.73 923.91 658.07 920.43 656.33"/><polygon class="cls-73" points="923.91 658.07 923.91 660.73 924.81 660.28 924.81 657.62 923.91 658.07"/><polygon class="cls-98" points="920.43 656.33 923.91 658.07 924.81 657.62 921.33 655.88 920.43 656.33"/></g></g></g><g><path class="cls-101" d="M895.31,650.06l11.73-10.07,18.18,.59-1.14,3.12-10.73,2.61s6.23,1.23,7.41,2.32c1.18,1.09,1.18,2.05-2.8,3.55-3.98,1.5-10.77,4.9-13.87,4.77-3.1-.13-8.78-6.88-8.78-6.88Z"/><path class="cls-93" d="M893.37,820.47l-6.2,10.64s6.02,4.09,11.47,8.72c5.45,4.63,14.75,17.36,20.92,17.36s3.11-9.59-1.26-17.07c-4.38-7.49-7.57-12.77-7.57-12.77l-17.35-6.88Z"/><polygon class="cls-5" points="910.15 709.52 931.42 709.52 940.63 715.79 941.77 738.68 910.15 828.92 894.82 823.49 902.62 783.35 910.15 709.52"/><polygon class="cls-101" points="954.79 679.8 962.51 671.87 976.55 673.12 989.31 681.26 975.88 691.97 964.83 694.75 954.79 679.8"/><rect class="cls-101" x="846.2" y="606.63" width="30.07" height="24.65" transform="translate(1610.15 1369.91) rotate(-170.63)"/><path class="cls-93" d="M822.89,625.23c1.2-2.12,7.73-9.22,12.51-9.11,3.77,.09,7.54,1.16,11.17,1.85,.81,.15,1.6,.29,2.38,.44,.87,.15,1.71,.31,2.53,.45,7.22,1.28,14.25,2.44,21.15,4.47,1.4,.4,2.8,.85,4.18,1.34,1.37,.48,2.72,1.01,4.12,1.57,5.02,2.02,10.11,4.47,14.66,7.2l8.16,16.69c3.39,7.56,8.91,17.2,8.91,20.95,0,10.85-1.89,13.78-6.31,19.05-1.67,1.99-4.01,3.27-5.67,5.47-.56,5.24-1.24,9.09-2.54,17.88-1.46,9.97-1.66,29.74-1.74,30-1.77,.7-3.44,1.29-5.08,1.79-4.05,1.25-11.62,1.81-20.99,1.81-1.7-.13-3.48-.36-5.28-.69-4.77-.86-9.87-1.78-14.56-3.49-5.1-1.83-13.59-4.66-17.16-6.62,.66-6.86,.81-17.93,.08-24.38-1.62-15.23-1.75-25.45-7.17-39.67-3.02-7.63-4.6-13.17-7.33-20.8-1.86-4.6,.16-19.45,4-26.21Z"/><path class="cls-93" d="M920.91,683.31l-25.6-49.74c-8.68,3.2-14.03,9.91-8.95,27.61l19.45,45.19,6.3,1.08,55.2-12.79-12.54-15.25-33.85,3.91Z"/><g><path class="cls-58" d="M875.49,843.3c4.86-2.81,10.85-2.81,15.71,0l56.76,34.66v16.29c0,3.31-1.64,6.63-4.92,8.52l-56.11,27.91c-4.86,2.81-10.85,2.81-15.71,0l-51.13-25.33c-3.28-1.89-4.92-5.21-4.92-8.52v-16.29l60.32-37.23Z"/><path class="cls-58" d="M1039.72,936.9c4.86-2.81,10.85-2.81,15.71,0l56.76,34.66v16.29c0,3.31-1.64,6.63-4.92,8.52l-56.11,27.91c-4.86,2.81-10.85,2.81-15.71,0l-51.13-25.33c-3.28-1.89-4.92-5.21-4.92-8.52v-16.29l60.32-37.23Z"/><g><g><path class="cls-93" d="M922.68,877.46l.02,.04c1.31-.64,2.95-.56,4.75,.48,4.22,2.44,7.65,8.98,7.65,14.61,0,3.21-1.12,6.5-2.86,7.37l-11.92,5.94-9.99-21.19,12.35-7.25Z"/><path class="cls-59" d="M907.75,890.84c0,5.63,3.43,12.17,7.65,14.61,4.22,2.44,7.65-.15,7.65-5.78s-3.43-12.17-7.65-14.61c-4.22-2.44-7.65,.15-7.65,5.78Z"/><path class="cls-93" d="M912.48,893.57c0,2.15,1.31,4.65,2.92,5.58,1.61,.93,2.92-.06,2.92-2.21s-1.31-4.65-2.92-5.59c-1.61-.93-2.92,.06-2.92,2.21Z"/></g><g><path class="cls-93" d="M839.45,877.46l-.02,.04c-1.31-.64-2.95-.56-4.75,.48-4.22,2.44-7.65,8.98-7.65,14.61,0,3.21,.66,6.31,2.4,7.18l12.37,6.13,9.99-21.19-12.35-7.25Z"/><path class="cls-59" d="M854.39,890.84c0,5.63-3.43,12.17-7.65,14.61-4.22,2.44-7.65-.15-7.65-5.78s3.42-12.17,7.65-14.61c4.22-2.44,7.65,.15,7.65,5.78Z"/><path class="cls-93" d="M849.66,893.57c0,2.15-1.31,4.65-2.92,5.58-1.61,.93-2.92-.06-2.92-2.21s1.31-4.65,2.92-5.59c1.61-.93,2.92,.06,2.92,2.21Z"/></g><g><path class="cls-93" d="M909.21,835.93l-.02,.04c-1.16-.57-2.62-.5-4.22,.42-3.75,2.17-6.79,7.98-6.79,12.98,0,2.85,.89,5.68,2.44,6.45l10.69,5.36,8.88-18.81-10.97-6.44Z"/><path class="cls-59" d="M922.47,847.82c0,5-3.04,10.81-6.79,12.98-3.75,2.16-6.79-.14-6.79-5.13s3.04-10.81,6.79-12.98c3.75-2.17,6.79,.13,6.79,5.13Z"/><path class="cls-93" d="M918.28,850.24c0,1.91-1.16,4.13-2.6,4.96-1.44,.83-2.6-.05-2.6-1.96s1.16-4.13,2.6-4.96c1.43-.83,2.6,.05,2.6,1.96Z"/></g><g><path class="cls-93" d="M850.78,835.93l.02,.04c1.16-.57,2.61-.5,4.22,.42,3.75,2.17,6.79,7.98,6.79,12.98,0,2.85-.91,5.73-2.46,6.5l-10.66,5.32-8.88-18.81,10.97-6.44Z"/><path class="cls-59" d="M837.52,847.82c0,5,3.04,10.81,6.79,12.98,3.75,2.16,6.79-.14,6.79-5.13s-3.04-10.81-6.79-12.98c-3.75-2.17-6.79,.13-6.79,5.13Z"/><path class="cls-93" d="M841.71,850.24c0,1.91,1.16,4.13,2.6,4.96,1.43,.83,2.6-.05,2.6-1.96s-1.16-4.13-2.6-4.96c-1.43-.83-2.6,.05-2.6,1.96Z"/></g></g><g><polygon class="cls-1" points="922.34 836.07 920.85 842.26 895.77 858.44 892.16 850.79 922.34 836.07"/><polygon class="cls-56" points="880.29 848.61 886.94 840.33 912.21 831.1 922.34 836.07 892.07 851.46 880.29 848.61"/><polygon class="cls-1" points="838.33 836.07 839.82 842.26 864.89 858.44 868.51 850.79 838.33 836.07"/><polygon class="cls-56" points="880.38 848.61 873.43 840.33 848.91 830.92 838.33 836.07 868.6 851.46 880.38 848.61"/><polygon class="cls-1" points="935.87 882.71 933.08 888.98 921.43 894.88 880.38 867.92 880.38 855.04 935.87 882.71"/><polygon class="cls-56" points="890.76 848.61 935.87 882.71 923.15 889.05 880.38 859.9 880.38 848.61 890.76 848.61"/><polygon class="cls-1" points="826.52 883.53 829.75 890.11 839.33 894.88 880.38 867.92 880.38 855.04 826.52 883.53"/><polygon class="cls-56" points="869.99 848.61 826.52 883.53 837.6 889.05 880.38 859.9 880.38 848.61 869.99 848.61"/><path class="cls-56" d="M880.38,859.31h0c6.51,0,11.78-4.96,11.78-11.09v-51.96h-23.56v51.96c0,6.13,5.27,11.09,11.78,11.09Z"/></g><g><path class="cls-27" d="M832.14,761.1l40.7-23.49c4.86-2.81,10.85-2.81,15.71,0l36.54,21.1,18.69,3.4v16.29c0,3.31-1.64,6.63-4.92,8.52l-56.11,27.91c-4.86,2.81-10.85,2.81-15.71,0l-51.13-25.33c-3.28-1.89-4.92-5.21-4.92-8.52v-16.29l21.15-3.57Z"/><path class="cls-105" d="M938.87,753.63l-50.31-32.31c-4.86-2.81-10.85-2.81-15.71,0l-56.93,34.93c-6.56,3.79-6.56,13.25,0,17.04l51.13,25.25c4.86,2.81,10.85,2.81,15.71,0l56.11-27.86c6.56-3.79,6.56-13.26,0-17.04Z"/></g><path class="cls-93" d="M893.52,712.28l16.26-2.98,23.79,15.36,18.66,13.32-6.08,21.12-68.16,28.11-13.45,.9s-25.43-11.02-32.02-15.3c-9.84-6.39-13.28-25.5-7.87-34.82,5.41-9.33,68.87-25.7,68.87-25.7Z"/><g><path class="cls-27" d="M802.65,672.05l19.94-9.59c2.49-1.13,5.5-1.16,8.21,.41l49.14,25.97c8.3,4.79,13.41,13.65,13.41,23.23v16.55c0,3.94-2.32,8.04-5.5,9.36l-13.61,6.88-22.83-24.83-24.07-13.9c-8.3-4.79-13.41-13.65-13.41-23.23v-3.64l-11.27-7.21Z"/><path class="cls-105" d="M864.53,745.3l-52.48-25.99c-8.3-4.79-13.41-13.65-13.41-23.23v-16.55c0-6.95,7.52-11.29,13.54-7.81l52.48,25.99c8.3,4.79,13.41,13.65,13.41,23.23v16.55c0,6.95-7.52,11.29-13.54,7.81Z"/></g><path class="cls-1" d="M820.58,787.02v-89.57c0-4.86,1.99-8.3,6.19-10.73l13.88,6.63v108.18s-7.86,.09-11.38-1.94l-2.18-1.26c-4.04-2.33-6.52-6.64-6.52-11.3Z"/></g><path class="cls-101" d="M894.07,569.41l2.11,14.48-3.11,26.45-18.87,1.37s6.22-42.3,19.87-42.3Z"/><polygon class="cls-93" points="912.24 830.28 905.33 840.49 916.36 852.97 935.1 868.53 941.77 862.97 928.45 840.49 912.24 830.28"/><polygon class="cls-101" points="928.45 721.09 952.06 721.09 960.54 727.86 960.07 750.26 928.45 840.49 913.11 835.06 920.92 794.93 928.45 721.09"/></g><path class="cls-93" d="M1066.78,623.79l-2.05,2.58,8.4,5.53-8.23,11.79-13.03,20.14-.58-3.68s-5.24-2.5-9.58,7.98l-4.73,12.61s-16.95,2.19-20.06,1.64l-7.4-5.19-2.16-13.67-8.95-25.31,10.12-22.48,34.45-1.03,14.72-1.21s-.76,2.44-3.48,4.37c-.95,.66,9.35,.86,9.35,.86l-2.71,3.39,5.91,1.7Z"/><path class="cls-93" d="M882.76,592.7c1.65-9.22,3.59-13.32,7.98-21.33,.45,.06,.94,.1,1.42,.18,0-3.73-3.48-8.68-3.39-8.83-2.15-2.28-4.39-6.38-6.48-8.24-9.87-8.65-24.65-10.16-39.27-8.88-24.19,3.44-20.77,35.54-18.63,42.15,.35,1.08,.73,2.16,1.13,3.25,.55,1.5,1.15,3.01,1.81,4.49,0,0,.01,.01,.01,.04h.02c3.01,6.76,12.39,14.72,17.55,18.55,6.97,2.27,24.16,4.67,32.37,4.36,6.47-.25,11.65-1.91,13.69-5.95-1.19-.63-2.83-1.13-4.6-2.1-3.89-2.13-4.77-12.13-3.63-17.67Z"/></g><g><g><g class="cls-24"><path class="cls-50" d="M1383.71,359.82l14.47-7.4c4.4-2.25,10.49-1.95,17.18,1.45l-14.46,7.4c-6.69-3.4-12.78-3.7-17.18-1.45h0Z"/><path class="cls-82" d="M1567.44,561.01l14.47-7.4c-.02,6.67-2.73,11.38-7.08,13.61l-14.47,7.4c4.35-2.23,7.06-6.94,7.08-13.61h0Z"/><polygon class="cls-82" points="1567.73 470.54 1582.19 463.14 1581.9 553.62 1567.44 561.01 1567.73 470.54"/><polygon class="cls-26" points="1400.9 361.27 1415.36 353.87 1558.09 426.4 1543.63 433.8 1400.9 361.27"/><path class="cls-69" d="M1543.63,433.8l14.46-7.4c13.3,6.76,24.14,23.28,24.1,36.74l-14.47,7.4c.04-13.45-10.8-29.98-24.1-36.74h0Z"/><path class="cls-67" d="M1543.63,433.8c13.3,6.76,24.14,23.28,24.1,36.74l-.29,90.48c-.04,13.42-10.95,18.92-24.26,12.16l-100.89-50.85c-.36,.25-36.99,16.9-37.7,16.54-1.57-.8-2.13-2.59-1.24-4.79l3.21-29.95-6.11-3.48c-13.3-6.76-24.14-23.32-24.1-36.74l.29-90.48c.04-13.45,10.96-18.92,24.26-12.17l142.73,72.53Z"/></g><g><path class="cls-95" d="M1463.83,451.41c12.08-3.09,25.64,17.5,16.6,25.24h0c-12.2,3.36-26.03-17.71-16.59-25.24Z"/><path class="cls-95" d="M1498.65,469.1c12.08-3.09,25.64,17.5,16.59,25.24h0c-12.2,3.36-26.03-17.71-16.59-25.24Z"/><path class="cls-95" d="M1428.97,433.74c12.01-3.2,25.75,17.46,16.66,25.2l-.03,.02c-12.19,3.38-26.02-17.66-16.63-25.21Z"/></g></g><g><path class="cls-52" d="M1615.23,568.15l-9.41-33.48,14.46-7.4,9.41,33.49c.43,1.55,.37,2.46-.08,2.69l-14.47,7.4c.45-.23,.51-1.14,.08-2.69Z"/><path class="cls-44" d="M1627.35,442.83c9.79,4.98,17.8,17.14,17.76,27.05l-.21,66.59c-.03,9.91-8.08,13.94-17.88,8.97l-21.2-10.77,9.41,33.48c.63,2.26,.21,3.16-.93,2.58-.51-.26-1.18-.82-1.96-1.69l-49.93-55.43c-.56-.61-.91-1.13-1.21-1.61l-39.21-19.93c-9.8-4.98-17.8-17.17-17.76-27.08l.21-66.59c.03-9.91,8.08-13.91,17.88-8.93l105.03,53.37Zm-87.55,21.22c6.26,3.18,11.38,.64,11.4-5.69,.02-6.36-5.07-14.09-11.33-17.27-6.26-3.18-11.35-.62-11.37,5.74-.02,6.33,5.04,14.04,11.3,17.22h0Zm34.82,17.69c6.26,3.18,11.35,.62,11.37-5.7,.02-6.36-5.04-14.08-11.3-17.26-6.26-3.18-11.35-.62-11.37,5.74-.02,6.33,5.04,14.04,11.3,17.22h0Zm34.82,17.7c6.26,3.18,11.35,.62,11.37-5.7,.02-6.36-5.04-14.08-11.3-17.26-6.26-3.18-11.35-.62-11.37,5.74-.02,6.33,5.04,14.04,11.3,17.22h0Z"/><g><path class="cls-95" d="M1601.28,475.32c12.08-3.09,25.64,17.5,16.59,25.24h0c-12.2,3.36-26.03-17.71-16.59-25.24Z"/><path class="cls-95" d="M1566.45,457.63c12.08-3.09,25.64,17.5,16.6,25.24h0c-12.2,3.37-26.03-17.71-16.59-25.24Z"/><path class="cls-95" d="M1531.59,439.96c12.01-3.2,25.75,17.46,16.66,25.2l-.03,.02c-12.19,3.38-26.02-17.66-16.63-25.21Z"/></g><g class="cls-24"><path class="cls-78" d="M1509.64,388.39l14.47-7.4c3.25-1.66,7.74-1.43,12.68,1.07l-14.46,7.4c-4.94-2.51-9.43-2.74-12.68-1.07h0Z"/><path class="cls-54" d="M1644.9,536.47l14.47-7.4c-.02,4.92-2.01,8.39-5.22,10.03l-14.47,7.4c3.2-1.64,5.2-5.11,5.22-10.03h0Z"/><polygon class="cls-54" points="1645.11 469.88 1659.58 462.48 1659.36 529.07 1644.9 536.47 1645.11 469.88"/><polygon class="cls-78" points="1522.32 389.47 1536.78 382.07 1641.81 435.44 1627.35 442.83 1522.32 389.47"/><path class="cls-102" d="M1627.35,442.83l14.46-7.4c9.8,4.98,17.8,17.14,17.76,27.05l-14.47,7.4c.03-9.91-7.97-22.07-17.76-27.05h0Z"/></g></g></g></svg>